<?xml version="1.0" encoding="utf-8"?>
<!-- Generator: Adobe Illustrator 19.2.1, SVG Export Plug-In . SVG Version: 6.00 Build 0)  -->
<svg version="1.1" xmlns="http://www.w3.org/2000/svg" xmlns:xlink="http://www.w3.org/1999/xlink" x="0px" y="0px"
	 viewBox="0 0 960 560" style="enable-background:new 0 0 960 560;" xml:space="preserve">
<style type="text/css">
	.st0{display:none;}
	.st1{display:inline;fill:url(#SVGID_1_);}
	.st2{display:inline;fill:url(#SVGID_2_);stroke:url(#SVGID_3_);stroke-miterlimit:10;}
	.st3{fill:url(#SVGID_4_);stroke:url(#SVGID_5_);stroke-miterlimit:10;}
	.st4{display:inline;fill:url(#SVGID_6_);stroke:url(#SVGID_7_);stroke-miterlimit:10;}
	.st5{display:inline;fill:url(#SVGID_8_);stroke:url(#SVGID_9_);stroke-miterlimit:10;}
	.st6{display:inline;fill:url(#SVGID_10_);stroke:url(#SVGID_11_);stroke-miterlimit:10;}
	.st7{display:inline;fill:url(#SVGID_12_);}
	.st8{fill:#FF914D;}
	.st9{fill:url(#SVGID_13_);}
	.st10{fill:url(#SVGID_14_);}
	.st11{fill:url(#SVGID_15_);}
	.st12{fill:url(#SVGID_16_);}
	.st13{fill:url(#SVGID_17_);}
	.st14{fill:#CB6CE6;}
	.st15{fill:#FF3131;}
	.st16{fill:url(#SVGID_18_);}
	.st17{fill:url(#SVGID_19_);}
	.st18{display:inline;opacity:0.6;}
	.st19{fill:#EADFE8;}
	.st20{display:inline;}
	.st21{fill:#FFFFFF;}
	.st22{fill:#F2F2F2;}
	.st23{fill-rule:evenodd;clip-rule:evenodd;fill:#FFFFFF;}
</style>
<g id="Capa_4" class="st0">
	<linearGradient id="SVGID_1_" gradientUnits="userSpaceOnUse" x1="0" y1="280" x2="960" y2="280">
		<stop  offset="0" style="stop-color:#FF6AB0"/>
		<stop  offset="0.1043" style="stop-color:#F66AB4"/>
		<stop  offset="0.2778" style="stop-color:#DC6BBE"/>
		<stop  offset="0.4992" style="stop-color:#B36DCF"/>
		<stop  offset="0.7568" style="stop-color:#7A6FE7"/>
		<stop  offset="0.9944" style="stop-color:#3F71FF"/>
	</linearGradient>
	<rect class="st1" width="960" height="560"/>
</g>
<g id="Capa_7" class="st0">
	<linearGradient id="SVGID_2_" gradientUnits="userSpaceOnUse" x1="0" y1="280" x2="960" y2="280">
		<stop  offset="0.2709" style="stop-color:#FFF7AD"/>
		<stop  offset="0.7629" style="stop-color:#FFA9F9"/>
	</linearGradient>
	<linearGradient id="SVGID_3_" gradientUnits="userSpaceOnUse" x1="-0.5" y1="280" x2="960.5" y2="280">
		<stop  offset="0" style="stop-color:#FF6AB0"/>
		<stop  offset="0.1043" style="stop-color:#F66AB4"/>
		<stop  offset="0.2778" style="stop-color:#DC6BBE"/>
		<stop  offset="0.4992" style="stop-color:#B36DCF"/>
		<stop  offset="0.7568" style="stop-color:#7A6FE7"/>
		<stop  offset="0.9944" style="stop-color:#3F71FF"/>
	</linearGradient>
	<rect class="st2" width="960" height="560"/>
</g>
<g id="Capa_8">
	<linearGradient id="SVGID_4_" gradientUnits="userSpaceOnUse" x1="0" y1="280" x2="960" y2="280">
		<stop  offset="0.2709" style="stop-color:#8C52FF"/>
		<stop  offset="0.7629" style="stop-color:#FF914D"/>
	</linearGradient>
	<linearGradient id="SVGID_5_" gradientUnits="userSpaceOnUse" x1="-0.5" y1="280" x2="960.5" y2="280">
		<stop  offset="0" style="stop-color:#FF6AB0"/>
		<stop  offset="0.1043" style="stop-color:#F66AB4"/>
		<stop  offset="0.2778" style="stop-color:#DC6BBE"/>
		<stop  offset="0.4992" style="stop-color:#B36DCF"/>
		<stop  offset="0.7568" style="stop-color:#7A6FE7"/>
		<stop  offset="0.9944" style="stop-color:#3F71FF"/>
	</linearGradient>
	<rect class="st3" width="960" height="560"/>
</g>
<g id="Capa_9" class="st0">
	<linearGradient id="SVGID_6_" gradientUnits="userSpaceOnUse" x1="0" y1="280" x2="960" y2="280">
		<stop  offset="0.2709" style="stop-color:#FF66C4"/>
		<stop  offset="0.7629" style="stop-color:#FFDE59"/>
	</linearGradient>
	<linearGradient id="SVGID_7_" gradientUnits="userSpaceOnUse" x1="-0.5" y1="280" x2="960.5" y2="280">
		<stop  offset="0" style="stop-color:#FF6AB0"/>
		<stop  offset="0.1043" style="stop-color:#F66AB4"/>
		<stop  offset="0.2778" style="stop-color:#DC6BBE"/>
		<stop  offset="0.4992" style="stop-color:#B36DCF"/>
		<stop  offset="0.7568" style="stop-color:#7A6FE7"/>
		<stop  offset="0.9944" style="stop-color:#3F71FF"/>
	</linearGradient>
	<rect class="st4" width="960" height="560"/>
</g>
<g id="Capa_10" class="st0">
	<linearGradient id="SVGID_8_" gradientUnits="userSpaceOnUse" x1="0" y1="280" x2="960" y2="280">
		<stop  offset="0.2709" style="stop-color:#CB6CE6"/>
		<stop  offset="0.7629" style="stop-color:#FFDE59"/>
	</linearGradient>
	<linearGradient id="SVGID_9_" gradientUnits="userSpaceOnUse" x1="-0.5" y1="280" x2="960.5" y2="280">
		<stop  offset="0" style="stop-color:#FF6AB0"/>
		<stop  offset="0.1043" style="stop-color:#F66AB4"/>
		<stop  offset="0.2778" style="stop-color:#DC6BBE"/>
		<stop  offset="0.4992" style="stop-color:#B36DCF"/>
		<stop  offset="0.7568" style="stop-color:#7A6FE7"/>
		<stop  offset="0.9944" style="stop-color:#3F71FF"/>
	</linearGradient>
	<rect class="st5" width="960" height="560"/>
</g>
<g id="Capa_11" class="st0">
	<linearGradient id="SVGID_10_" gradientUnits="userSpaceOnUse" x1="0" y1="280" x2="960" y2="280">
		<stop  offset="0.2709" style="stop-color:#CB6CE6"/>
		<stop  offset="0.7629" style="stop-color:#BFC1FF"/>
	</linearGradient>
	<linearGradient id="SVGID_11_" gradientUnits="userSpaceOnUse" x1="-0.5" y1="280" x2="960.5" y2="280">
		<stop  offset="0" style="stop-color:#FF6AB0"/>
		<stop  offset="0.1043" style="stop-color:#F66AB4"/>
		<stop  offset="0.2778" style="stop-color:#DC6BBE"/>
		<stop  offset="0.4992" style="stop-color:#B36DCF"/>
		<stop  offset="0.7568" style="stop-color:#7A6FE7"/>
		<stop  offset="0.9944" style="stop-color:#3F71FF"/>
	</linearGradient>
	<rect class="st6" width="960" height="560"/>
</g>
<g id="Capa_6" class="st0">
	<linearGradient id="SVGID_12_" gradientUnits="userSpaceOnUse" x1="0" y1="280" x2="960" y2="280">
		<stop  offset="0" style="stop-color:#FF6AB0"/>
		<stop  offset="0.19" style="stop-color:#FA61A7"/>
		<stop  offset="0.5059" style="stop-color:#EE478D"/>
		<stop  offset="0.9064" style="stop-color:#D91E64"/>
		<stop  offset="0.9944" style="stop-color:#D4145A"/>
	</linearGradient>
	<rect class="st7" width="960" height="560"/>
</g>
<g id="Capa_12">
	<g>
		<g>
			<path class="st8" d="M9.4,181.5c4.4-7.6,7.5-15.8,11.8-23.4c4.7-8.3,11.4-14.4,20-18.4c8.5-4,18.7-5.7,27.8-2.7
				c9.3,3,16.5,11,21.9,18.9c5.9,8.7,7.9,18.2,4.6,28.3c-3.2,9.6-9.6,17.7-16,25.4c-11,13.2-23,27.9-21.1,46.2
				c0.9,9.3,4.7,18,8.7,26.4c4.6,9.7,9.2,19.4,13.1,29.4c7.3,18.6,12.7,38.5,11.4,58.7c-1.2,17-7.1,34.4-19,46.9
				c-6.4,6.8-15.4,13.5-25.1,13.8c-9.2,0.3-17.6-4.9-23.7-11.5c-7.8-8.4-12.8-19.9-11.9-31.4c0.9-10.8,5.5-21,6.8-31.8
				c1.4-11.4,2.7-31.4-11-36c-3.7-1.2-5.2,4.6-1.6,5.8c7,2.4,7.2,13.1,7.3,19.1c0,9-1.7,17.5-4.1,26.1c-2.8,10-4.9,20-2.2,30.3
				c2.4,9.1,7.7,17.8,14.5,24.3c6.1,5.8,13.8,10.1,22.2,10.9c9.6,1,18.6-3.4,26-9.1c13.9-10.8,22.4-27.2,25.9-44.2
				c4.1-20,1.3-40.4-4.8-59.7c-3.3-10.5-7.6-20.6-12.1-30.6c-4.7-10.3-10.5-20.4-13.3-31.4c-5.9-23.2,11.7-38.9,24.4-55.7
				c6-7.9,11.3-16.8,12.9-26.6c1.6-9.6-1.2-18.7-6.7-26.6c-5.7-8.3-13.1-16.6-22.6-20.6c-9.6-3.9-20.5-3.3-30.2,0.2
				c-9.3,3.4-17.8,9.1-23.7,17.1c-6.5,8.9-9.8,19.6-15.4,29C2.2,181.8,7.4,184.8,9.4,181.5L9.4,181.5z"/>
		</g>
	</g>
	<g>
		<g>
			<linearGradient id="SVGID_13_" gradientUnits="userSpaceOnUse" x1="734.8467" y1="271.1239" x2="956.7738" y2="271.1239">
				<stop  offset="0.2709" style="stop-color:#FF66C4"/>
				<stop  offset="0.7629" style="stop-color:#FFDE59"/>
			</linearGradient>
			<path class="st9" d="M957.6,96.3c-4.5-13.1-11.2-25.1-20.2-35.6c-8.6-10.1-19.9-20.2-33.1-23.6c-7.6-1.9-15.5-1.4-23.3-1.2
				c-8.8,0.2-17.5,0-26.3-0.1c-15.7-0.2-31.6-0.1-47,3.3c-25.7,5.8-50.8,23.2-54,51.2c-1.6,13.7,3.9,25.8,12.3,36.3
				c9.6,12,21.3,22.6,33.3,32.2c11.6,9.2,23.9,19.1,20.1,35.7c-3.5,15.3-16.6,25.3-28.1,34.7c-20.9,17-41.9,36.4-52.5,61.7
				c-5.7,13.7-7.3,28.1-5.8,42.9c1.4,13.6,3.8,26.9,15.8,35c22.9,15.4,53.4,12.8,78.8,21.3c14.2,4.8,25.7,13.5,34.4,25.7
				c8.4,11.7,14.1,25,20.3,38c11.5,23.7,28,49.3,56.7,52.5c6.2,0.7,12.4,0,18.3-2.2c3.6-1.3,2-7.1-1.6-5.8
				c-28.8,10.4-51.9-16-63.8-38.7c-11.9-22.6-20.4-48.7-41.7-64.6c-21.1-15.7-48.5-15.7-73.1-21.6c-12-2.9-27.8-7.1-33.7-19.2
				c-3.2-6.5-4-14.3-4.6-21.4c-0.8-8.1-0.8-16.3,0.8-24.2c5.1-26.5,24.2-47.6,43.8-64.9c17.7-15.7,46.4-32.4,42.4-60.2
				c-1.8-12.5-11.7-20.6-21.1-28c-11-8.7-21.4-18.2-30.7-28.7c-9.6-10.9-16.7-23.7-13.9-38.7c2.6-13.4,11.3-25.1,22.7-32.5
				c29-18.9,65.6-12.9,98.3-13.8c8.9-0.2,17.9-0.9,26.3,2.5c7.5,3,14,8.4,19.8,14c11.2,11,19.6,24.6,24.7,39.5
				C953.1,101.5,958.9,100,957.6,96.3L957.6,96.3z"/>
		</g>
	</g>
	<g>
		<g>
			<linearGradient id="SVGID_14_" gradientUnits="userSpaceOnUse" x1="29.2799" y1="155.1338" x2="211.2772" y2="155.1338">
				<stop  offset="0.2709" style="stop-color:#FF66C4"/>
				<stop  offset="0.7629" style="stop-color:#FFDE59"/>
			</linearGradient>
			<path class="st10" d="M52,43.4c-3.3-13.8,10.4-23.2,22.2-25.5c13.4-2.6,28.4-1,41.9,0C141,19.8,170,28,180.4,53.4
				c5.1,12.4,4.5,25.8-0.7,38.1c-4.9,11.4-11.7,21.8-13.3,34.4c-1.5,12.1,0.9,24.7,7.1,35.2c6.4,10.9,16.4,19,23.5,29.2
				c12.5,17.9,13.6,41.7,5.5,61.6c-8.7,21.3-27.7,35.6-50,40c-23.9,4.8-47.9-2.2-66.5-17.5c-20.2-16.6-37.5-38.7-46.1-63.5
				c-4.7-13.5-7.2-27.8-7.2-42.1c0-15.2,3.3-29.6,7.7-44c4.7-15.2,8.3-30.3,10.3-46.1c1.1-8.3,2-16.6,2.8-24.9
				c0.5-5.5,0.3-10.7-3.4-15.1c-2.5-3-6.7,1.3-4.2,4.2c4,4.9,1.2,14.8,0.6,20.5c-0.9,8.7-1.9,17.3-3.4,25.9
				c-2.7,15.6-7.9,30.3-11.9,45.5c-7,26.3-5.8,54.4,3.6,80c9.5,25.8,27.9,49.1,49.5,66c19.3,15,43.4,21.5,67.6,17.3
				c22.9-3.9,43.3-17.9,53.7-38.9c9.6-19.5,10.9-43.1,1.7-63c-5.5-12-15.4-20.6-23.5-30.7c-9.5-11.9-14.1-27-11.1-42.2
				c2.8-14,12.2-25.4,15.6-39.1c3-12,1.5-24.9-3.8-36.1c-13.6-28.4-47.6-35.3-76-36.7c-15.1-0.7-32.4-2.8-46.5,4
				c-11,5.3-18.9,17.2-16,29.5C47.1,48.7,52.9,47.1,52,43.4L52,43.4z"/>
		</g>
	</g>
	<g>
		<g>
			<linearGradient id="SVGID_15_" gradientUnits="userSpaceOnUse" x1="116.2621" y1="443.3628" x2="770.1281" y2="443.3628">
				<stop  offset="0.2709" style="stop-color:#FF66C4"/>
				<stop  offset="0.7629" style="stop-color:#FFDE59"/>
			</linearGradient>
			<path class="st11" d="M119.6,553.9c8.4-48.1,26.8-95.3,55-135.3c6.8-9.7,14.7-19,24.5-25.9c10-7,21.5-10.8,33.5-12.4
				c11.1-1.5,22.8-1.8,34-0.5c10.4,1.2,22,4.5,28.4,13.5c6.7,9.6,5.9,22.1,6.2,33.2c0.3,10.7,1.8,21.3,5.3,31.5
				c6.8,19.6,20.7,36.2,40.4,43.6c18.6,7,40.1,3.9,54.2-10.8c6.4-6.7,11.1-15.3,12.4-24.5c1.4-9.9-1.4-19.1-5.7-28
				c-4.9-10.3-11.4-20.1-12.8-31.7c-1.3-10.7,1.2-21.6,6.1-31.2c10.4-20.3,30.7-32.2,52.6-36.5c24.7-4.8,50,0.2,73.6,7.8
				c22.9,7.4,46.3,16,66.8,29c19.1,12.1,35.1,29,41.9,50.9c6.4,20.9,2.5,43.2-13.5,58.6c-14.6,14.1-36.3,21.3-56.4,20
				c-12.2-0.8-20-7.7-22.6-19.5c-2.1-9.8-0.1-20.4,3.9-29.5c8.1-18.5,24.9-32.3,43.4-39.7c22.4-9,47.3-8,70.5-2.4
				c13,3.2,25.5,7.7,37.8,13c10.8,4.7,22.3,9.5,31.6,16.9c19.2,15.3,24.4,43.2,29.4,65.9c2.8,12.8,5.1,25.8,6.7,38.8
				c0.5,3.8,6.5,3.8,6,0c-3.3-26.8-8.2-54.7-18-79.9c-4.3-11.1-10.4-21.5-19.8-29c-9.7-7.8-21.5-13-32.8-17.9
				c-43.9-19-97.2-29.2-137.6,3.1c-15.5,12.4-27.1,30.9-27.7,51.1c-0.3,9.6,2.3,20.2,9.3,27.2c7.6,7.7,18.9,8.5,29.1,7.8
				c20.4-1.2,41.3-9.7,55-25.2c14.5-16.4,18-38.7,12.1-59.5c-13.8-48.2-64.7-69.2-107.9-83.8c-24.8-8.4-51.1-14.3-77.4-10.4
				c-22.6,3.4-44.4,14.3-57.2,33.6c-12.2,18.4-14.1,40.4-4.7,60.4c5.2,10.9,12.8,21.7,12.9,34.2c0.1,11.2-5.8,21.8-14.2,29
				c-19.2,16.4-48,10.2-64.9-6.4c-8.9-8.8-14.9-20.1-18.2-32.1c-3.4-12.2-3-24.3-3.7-36.8c-0.6-10.6-2.9-21.3-10.8-28.9
				c-7.5-7.2-17.9-10.2-28-11.5c-22.9-2.9-49.4-0.8-69.3,11.8c-20.6,13-34.1,35.4-45.8,56.2c-12.8,22.9-23,47.3-30.4,72.4
				c-3.6,12.5-6.5,25.1-8.8,37.9C113.2,556.1,119,557.7,119.6,553.9L119.6,553.9z"/>
		</g>
	</g>
	<g>
		<g>
			<linearGradient id="SVGID_16_" gradientUnits="userSpaceOnUse" x1="234.6842" y1="96.4491" x2="647.8453" y2="96.4491">
				<stop  offset="0.2709" style="stop-color:#FF66C4"/>
				<stop  offset="0.7629" style="stop-color:#FFDE59"/>
			</linearGradient>
			<path class="st12" d="M256.8,14.2C242.3,20.6,235,35.6,233,50.7c-1.2,9.2-1.2,18.7-0.2,27.9c1,8.9,4.2,16.5,9.1,23.9
				c17.1,26.3,36.7,54.4,67.9,64.6c17.1,5.5,35.5,6,53.3,6.2c17.8,0.2,36-0.8,53.2-5.7c14.6-4.2,30.9-10.8,37.2-25.8
				c3.4-8.1,5-17.2,6.2-25.9c1.1-8.3,1.3-16.9-0.5-25.1c-6.3-28.5-41.9-49.7-67.8-30.4c-28.3,21-12.6,61.1,6,82.7
				c47,54.5,127,51.9,191.6,40.5c16.1-2.8,30.8-8.4,40.9-21.9c9.3-12.3,13.6-27.8,16.5-42.7c3.4-17.6,5-35.7,3.3-53.5
				c-1.6-16.5-5.5-34.4-14.8-48.5c-3.9-5.9-9-10.9-15.5-13.9c-3.5-1.6-6.5,3.6-3,5.2c13.9,6.4,19.8,22.3,23.6,36.1
				c4.1,15.3,5.1,31.3,4.1,47.1c-1,15.2-3.5,30.6-8.2,45.1c-4.3,13.3-11.5,26.3-24,33.5c-13.7,7.9-31.4,9.1-46.8,11.1
				c-16.8,2.2-33.8,3.6-50.8,3.3c-30-0.6-60.1-6.9-85.8-22.9c-23.1-14.3-47.5-40.2-46.5-69.3c0.5-14.7,9.1-28.5,23.9-32
				c13.6-3.3,28,2,37.3,12.2c11.7,12.8,12.9,30.1,10.1,46.5c-1.3,7.5-2.7,15.6-6.1,22.5c-3.5,7-10,11.4-16.9,14.7
				c-28.2,13.4-62.7,12.8-93.1,10.1c-16-1.4-31.6-5.3-45-14.4c-11.8-8-21.3-19-29.7-30.3c-4.3-5.8-8.3-11.7-12.4-17.7
				c-4.5-6.6-9-13.3-10.5-21.4c-1.6-8.2-1.6-17-1.1-25.3c0.5-8.3,2.2-16.7,6.4-23.9c3.5-6.1,8.6-10.9,15.1-13.8
				C263.3,17.8,260.3,12.6,256.8,14.2L256.8,14.2z"/>
		</g>
	</g>
	<g>
		<g>
			<linearGradient id="SVGID_17_" gradientUnits="userSpaceOnUse" x1="1059" y1="174" x2="1059" y2="174">
				<stop  offset="0.2709" style="stop-color:#CB6CE6"/>
				<stop  offset="0.7629" style="stop-color:#BFC1FF"/>
			</linearGradient>
			<path class="st13" d="M1059,177c3.9,0,3.9-6,0-6C1055.1,171,1055.1,177,1059,177L1059,177z"/>
		</g>
	</g>
	<g>
		<g>
			<path class="st14" d="M571.7,4.1c-13.5,6.7-27.6,14.1-36.9,26.3c-10.7,14-10.6,31.6-5.2,47.8c4.8,14.5,13.8,28.4,27.5,35.8
				c16.3,8.9,35.4,6.4,53.1,8.2c20.1,2.1,39.5,8.6,59.5,11.7c18.9,2.8,38,3.9,57,3c19-0.9,38-3.5,56.5-8c9.7-2.4,19.3-5.2,28.7-8.6
				c8.2-2.9,16.7-6,24-10.9C851.7,99,858.8,80.3,860.2,62c1.5-19.2-3.9-38.6-14.9-54.3c-2.2-3.1-7.4-0.1-5.2,3
				c9.4,13.4,14.4,29.3,14.3,45.6c-0.1,15.6-4.7,33.6-16.8,44.3c-6.3,5.6-14.3,9-22.1,12c-8.2,3.1-16.6,5.8-25.1,8.2
				c-17,4.7-34.4,7.8-51.9,9.3c-17.5,1.5-35.2,1.4-52.7-0.3c-17.9-1.7-35.2-5.8-52.7-9.7c-8.5-1.9-17-3.5-25.7-4.2
				c-8.1-0.7-16.3-0.5-24.4-1.2c-17.4-1.4-31.6-8.6-40.9-23.7c-9.3-15.2-14.9-36.7-5.3-53c8.2-14,23.9-21.8,37.9-28.8
				C578.2,7.5,575.2,2.4,571.7,4.1L571.7,4.1z"/>
		</g>
	</g>
	<g>
		<g>
			<path class="st14" d="M934.7,330.8c-44.6-7-91.1,13.8-116.6,50.9c-14.8,21.6-16.6,50.1-37.2,67.7c-9.7,8.2-21.2,14-32.3,20
				c-12.4,6.7-24.5,14.1-36.1,22.1c-12.9,8.9-25.4,18.6-37.1,29.1c-9.7,8.6-24.2,20.2-19.9,35c1.1,3.7,6.9,2.1,5.8-1.6
				c-3.9-13.3,13.7-25.3,22.4-32.7c10.6-9.2,21.8-17.7,33.4-25.6c10.7-7.3,21.9-14.1,33.3-20.3c10.5-5.7,21.2-11.1,30.7-18.3
				c9.4-7.1,16.8-15.9,21.7-26.7c5-10.9,7.9-22.7,13.4-33.5c10-19.8,26.4-35.9,45.7-46.7c21.5-12,46.8-17.4,71.3-13.5
				C936.8,337.2,938.5,331.4,934.7,330.8L934.7,330.8z"/>
		</g>
	</g>
	<g>
		<g>
			<path class="st14" d="M10.9,293.9c9.9-19.2,23.2-37.7,42.5-48.4c17-9.5,39.1-11.1,56.4-1.2c20.1,11.4,25.4,36.4,17.7,57.2
				c-8.5,23-28.6,35.8-47.4,49.8c-17,12.7-31.1,28.3-35.6,49.6c-4,19.1,0.7,39.1,13.8,53.7c14.8,16.4,36.1,19.8,57,16.3
				c12.5-2.1,24.5-6,36.8-9.2c12.4-3.2,25.1-5.3,37.9-6c14.5-0.8,29.3-0.3,43.5,2.5c14,2.7,24.8,9.3,33.1,20.9
				c7.8,11,13.7,23.4,20.2,35.2c7.2,13.1,14.4,26.3,21.7,39.4c1.9,3.4,7,0.4,5.2-3c-6.8-12.3-13.5-24.6-20.3-36.9
				c-6.2-11.3-12-23-19-33.8c-5.7-8.9-12.7-17.2-22.2-22.1c-10.5-5.3-22.5-6.8-34.1-7.9c-26.3-2.3-51.9,1.3-77.2,8.3
				c-23.4,6.5-51,14.4-72.2-2.3c-17.7-14.1-23.5-37.9-17.1-59.1c7.4-24.6,27.9-37.6,47.4-52.2c17.6-13.2,33.4-30.2,37.1-52.7
				c3.3-20.1-4-41-21.6-52c-17.9-11.2-41.4-10.8-60.1-1.9c-22.2,10.6-37.8,31.3-48.7,52.7C4,294.3,9.2,297.4,10.9,293.9L10.9,293.9z
				"/>
		</g>
	</g>
	<g>
		<g>
			<path class="st15" d="M192.8,11.2c15.4,9.5,30.8,18.9,46.1,28.5c12.3,7.7,25.1,16.3,33.3,28.5c8.5,12.7,9.8,28.1,3.5,42
				c-6.6,14.6-19.5,24.8-34.6,29.8c-28.7,9.5-65.8,3.3-87-19.1c-10.6-11.2-17-26.1-29.7-35.3c-10-7.3-24.8-11-35.7-3.3
				c-6.6,4.7-10.5,12.6-16,18.4c-5.7,6-12.4,11-19.7,14.9c-14.6,8-31.4,11.2-47.9,9.3c-3.8-0.4-3.8,5.6,0,6
				c29.7,3.3,60.1-9.7,78.1-33.5c5.4-7.1,10.3-13.7,20-13.5c7.9,0.2,15.7,4.2,21.4,9.6c12.4,11.6,19.1,27.7,32.7,38.3
				c24.1,18.8,60.8,23.6,89.2,12.4c27.1-10.6,47.8-40.8,35.8-70c-6.3-15.2-19.5-26-32.8-34.9C232.1,27.7,213.8,17.1,195.8,6
				C192.5,3.9,189.5,9.1,192.8,11.2L192.8,11.2z"/>
		</g>
	</g>
	<g>
		<g>
			<path class="st15" d="M954.5,237.1c-5.8-10.6-12-21.4-20.8-29.8c-8.8-8.3-19.5-12.6-31.4-14.1c-12.9-1.6-26.7-1.8-39.7-0.4
				c-11.5,1.2-22.7,4.7-31.3,12.6c-17,15.5-20,41-11.5,61.5c4.4,10.7,11.4,20.2,20,27.9c10,9.1,22,15.5,32.4,24.1
				c19.3,16.1,32.3,41.3,31.2,66.7c-0.6,13-5.5,25.5-15.5,34c-8.9,7.6-20.6,11.4-32.1,12.7c-12.3,1.4-25.2,0.4-37.2-3
				c-6.4-1.8-12.5-4.4-18.1-8c-5.9-3.8-11.2-8.6-16.9-12.7c-18.6-13.4-43.7-16.5-65.2-8.5c-24.7,9.2-39.9,31.8-46.7,56.4
				c-8.6,30.8-4.4,63-4.5,94.5c0,3.9,6,3.9,6,0c0.2-28.3-3.5-57.3,2.5-85.3c4.8-22.5,16-45,37-56.4c20.6-11.2,47.2-9.9,66.5,3.5
				c10.4,7.2,19.2,15.6,31.3,20.2c11.1,4.2,23.2,6,35,5.9c20.5-0.1,42.6-6.6,54.8-24.1c12.9-18.6,10.8-44,2.6-63.9
				c-4.3-10.4-10.4-20-18.1-28.3c-8.6-9.3-19.3-16-29.6-23.3c-19.8-14-36.8-35.7-33.6-61.4c1.6-12.7,8.3-25.2,19.2-32.1
				c12.5-7.9,28.1-7.8,42.4-7.6c15,0.2,30.7,0.7,43,10.4c10.4,8.2,17,20.2,23.3,31.6C951.2,243.5,956.4,240.4,954.5,237.1
				L954.5,237.1z"/>
		</g>
	</g>
	<g>
		<g>
			<linearGradient id="SVGID_18_" gradientUnits="userSpaceOnUse" x1="6.495" y1="489.164" x2="209.6981" y2="489.164">
				<stop  offset="0.2709" style="stop-color:#FFF7AD"/>
				<stop  offset="0.7629" style="stop-color:#FFA9F9"/>
			</linearGradient>
			<path class="st16" d="M8.3,475.4c35.5-25.2,76.8-41.8,119.9-48c19.2-2.7,43.6-6.2,60.8,5.1c17.2,11.3,19.8,34.7,15,53.1
				c-3.1,12-8.9,23-15,33.7c-6.8,12-13.8,23.8-20.7,35.7c-1.9,3.3,3.2,6.4,5.2,3c6.8-11.6,13.6-23.2,20.3-34.9
				c5.8-10.1,11.3-20.6,14.8-31.7c5.8-18.4,5.4-40.3-7.4-55.9c-13.7-16.7-36.8-17.5-56.6-15.9c-23.2,1.8-46.2,6.6-68.2,14.1
				c-25.3,8.7-49.3,21-71.1,36.5C2.1,472.4,5.1,477.6,8.3,475.4L8.3,475.4z"/>
		</g>
	</g>
	<g>
		<g>
			<linearGradient id="SVGID_19_" gradientUnits="userSpaceOnUse" x1="702.535" y1="85.1748" x2="920.7607" y2="85.1748">
				<stop  offset="0.2709" style="stop-color:#FFF7AD"/>
				<stop  offset="0.7629" style="stop-color:#FFA9F9"/>
			</linearGradient>
			<path class="st17" d="M761.9,4.9c-16.6,4.7-33,12.8-45.8,24.6c-11.7,10.9-15.8,27-16.1,42.5c-0.6,28.9,13.3,58,36,75.8
				c27.3,21.4,64.1,22.9,96.8,15.3c18.8-4.4,36.7-11.5,54.4-19.1c7.5-3.2,15.7-6.2,21.5-12c6.1-6.1,7.7-14.3,8.9-22.4
				c3.3-21.7,6.2-44.3,5.5-66.3c-0.5-16.8-7.2-36.2-25.6-40.3c-3.8-0.8-5.4,4.9-1.6,5.8c16.8,3.8,21.2,22.4,21.2,37.3
				c0.1,17.5-1.7,35.3-4,52.6c-1.1,8-1.4,17.6-5.4,24.8c-3.9,6.9-11.6,10.2-18.5,13.2c-15.7,6.9-31.7,13.4-48.2,18.2
				c-30.6,8.7-65.9,10.9-94-6.5c-22.3-13.8-37.4-38.5-40.5-64.5c-1.8-15.4-0.2-34.5,10.4-46.7c11.6-13.3,29.9-21.8,46.5-26.5
				C767.2,9.6,765.7,3.8,761.9,4.9L761.9,4.9z"/>
		</g>
	</g>
</g>
<g id="Capa_5" class="st0">
	<g class="st18">
		<g>
			<g>
				<path class="st19" d="M364.8,330.4c-5.8-3.6-2.8-15.3,1-19.5c-0.8-0.1-1.6-0.2-2.4-0.3c4.3,6.9,6.1,21.7,16.5,22.4
					c12,0.7,12.1-15.5,12.1-23.6c0-1.9-3-1.9-3,0c-0.1,8.7,3.7,16.4,7.5,24.1c3.7,7.6,8.9,16.9,6.5,25.7
					c-1.8,6.2-7.2,14.4-13.9,16.1c-4,1-6.6-1.5-8.4-4.8c-2.4-4.4-2.3-8.6-0.1-13.1c5.6-11.8,17.4-19.1,24.3-30
					c3-4.7,5.7-9.5,7.9-14.6c1.4-3.3,3.6-8.1,2.4-11.7c-1.2-3.6-5.9-4.1-8.7-2c-4.2,3.2-3.7,11.4-1.3,15.5c0.9,1.7,3.5,0.2,2.6-1.5
					c-1.4-2.5-1.9-7-0.7-9.7c1.2-2.6,4.9-3.9,5.4-0.4c0.7,4.8-3.4,11.1-5.5,15.1c-2.1,3.9-4.4,8-7.1,11.5
					c-4.1,5.3-9.3,9.8-13.7,14.9c-4.3,4.9-9.1,10.7-10.1,17.5c-0.8,5.3,1.8,12.1,6.4,15.1c9.6,6.3,20-7.6,22.9-15.2
					c6.9-18.3-13.4-34.4-13.2-52.4c-1,0-2,0-3,0c0,5.9-0.5,25.8-11.4,19.8c-6.8-3.7-7.8-14-11.5-20.1c-0.5-0.8-1.7-1-2.4-0.3
					c-5.1,5.7-8,19.4-0.4,24.2C364.9,334,366.4,331.4,364.8,330.4L364.8,330.4z"/>
			</g>
		</g>
		<g>
			<g>
				<path class="st19" d="M425,303.8c-2.2-11.1-10.5-16.7-21.6-13.8c-11,2.9-21.5,11.6-26.8,21.6c-5.6,10.6-2.3,21.8,7.6,28.7
					c10.8,7.5,25,4.1,35.3-2.5c11-7.1,22.1-20.4,18.7-34.4c-0.3-1.3-2-1.4-2.7-0.4c-6.7,9.5-9.2,25.9-3.3,36.2
					c0.3,0.5,1.1,0.9,1.7,0.7c6.3-2.4,6.6-8.3,11.2-12.3c-0.7,0-1.4,0-2.1,0c2.6,3.3,2.9,7.9,5.4,11.3c2.3,3.3,5.6,4.4,9.5,4
					c1.9-0.2,1.9-3.2,0-3c-9.1,0.8-8.5-9-12.8-14.4c-0.5-0.7-1.6-0.5-2.1,0c-4,3.4-4.7,9.5-9.9,11.5c0.6,0.2,1.1,0.5,1.7,0.7
					c-5.4-9.4-2.7-24.6,3.3-33.2c-0.9-0.1-1.8-0.2-2.7-0.4c5.1,21-25.1,42.6-44,36.4c-10.2-3.3-17.3-14.5-13.3-24.8
					c3.6-9.1,12-16.7,20.7-20.8c4.3-2,9.5-3.6,14.2-2.3c5.7,1.5,8.1,6.7,9.2,12.1C422.4,306.5,425.3,305.7,425,303.8L425,303.8z"/>
			</g>
		</g>
	</g>
</g>
<g id="Capa_1" class="st0">
	<g class="st20">
		<path class="st21" d="M490.7,211.6c-3.4,0.5-6.7,2.1-9.9,4.7c-3.2,2.6-6.1,5.7-8.7,9.2c-2.6,3.6-4.8,7.3-6.6,11.2
			c-1.8,3.9-2.9,7.4-3.4,10.5c-0.5,3.1-0.3,5.6,0.7,7.3c1,1.8,2.9,2.3,5.8,1.5c-1,2-2.5,3-4.5,3.1c-2,0-4.1-0.6-6.1-1.9
			c-2-1.3-3.8-3.3-5.3-5.7c-1.5-2.5-2.2-5.2-2.1-8.3c0.1-2.8,0.9-5.7,2.4-8.9c1.5-3.2,3.5-6.3,5.9-9.4c2.4-3.1,5.2-6,8.4-8.8
			c3.2-2.7,6.5-5,9.9-6.9c3.5-1.9,6.9-3.2,10.3-3.9c3.4-0.7,6.7-0.7,9.7,0.2c2.1,0.7,3.8,1.8,5.1,3.3c1.3,1.5,2.2,3.3,2.7,5.2
			c0.5,1.9,0.7,4,0.5,6.2c-0.2,2.2-0.8,4.3-1.6,6.3c-0.9,1.8-2.1,4.4-3.8,7.7c-1.6,3.3-3.4,7-5.2,11c-1.8,4-3.6,8.1-5.3,12.3
			c-1.7,4.2-3.1,8-4.2,11.5c-1,3.5-1.6,6.4-1.7,8.8c-0.1,2.4,0.6,3.7,2.1,4.1c1.6,0.3,3.5-0.6,5.8-2.8c2.3-2.2,4.9-5.3,7.7-9.3
			c2.8-4,5.8-8.6,8.9-13.9c3.1-5.3,6.2-10.8,9.3-16.6c3.1-5.8,6-11.7,8.8-17.6c2.8-5.9,5.4-11.5,7.6-16.7c0.6-1.4,1.8-2.1,3.6-2.2
			c1.8-0.1,3.6,0.2,5.4,0.8c1.8,0.6,3.4,1.6,4.6,2.9c1.3,1.3,1.7,2.6,1.4,4c-1.7,5.2-3.6,11.8-5.7,19.7c-2.1,7.9-4.5,16.2-7.2,24.9
			c-2.7,8.7-5.7,17.1-9,25.3c-3.3,8.2-7,15.1-11.2,20.9c-4.2,5.9-8.6,10.3-12.9,13.3c-4.4,3-8.5,4.9-12.5,5.8
			c-3.9,0.9-7.5,0.8-10.7-0.1c-3.2-0.9-5.8-2.3-7.9-4.3c-2-1.9-3.3-4.2-3.9-6.8c-0.6-2.6-0.1-5.2,1.4-7.8c1.3,4.2,3.3,7.1,5.9,8.8
			c2.6,1.7,5.7,2.1,9,1.2c3.4-0.9,7-2.9,10.9-6.2c3.9-3.3,7.6-7.8,11.4-13.5c3.7-5.7,7.3-12.6,10.7-20.7c3.4-8.1,6.3-17.4,8.7-27.8
			c-1.9,3.5-4,7.2-6.2,11.2c-2.2,4-4.6,8-7.1,12c-2.5,3.9-5.1,7.6-7.8,11.1c-2.7,3.5-5.4,6.4-8.3,8.7c-2.8,2.3-5.6,3.9-8.4,4.7
			c-2.8,0.8-5.6,0.5-8.3-0.8c-3.5-1.7-5.7-4.2-6.8-7.5c-1.1-3.2-1.4-6.9-0.9-11c0.5-4.1,1.6-8.5,3.3-13.1c1.7-4.6,3.6-9.2,5.7-13.8
			c2-4.5,4.1-8.9,6.1-13c2-4.1,3.7-7.7,4.9-10.8c1.2-3.1,1.8-5.5,1.8-7.1C494,211.9,492.9,211.2,490.7,211.6z"/>
		<path class="st21" d="M582.4,275.3c0.7-0.1,1.2,0.2,1.5,0.7c0.3,0.6,0.5,1.2,0.5,2c0,0.7-0.2,1.4-0.5,2c-0.3,0.6-0.7,0.9-1.1,0.9
			c-2,0.3-3.9,0.3-5.6,0.3c-1.7-0.1-3.8-0.5-6.1-1.3c-0.4,0.9-1,2.1-1.7,3.6c-0.7,1.5-1.5,3.1-2.5,4.7c-1,1.6-2.2,3.2-3.5,4.7
			c-1.3,1.5-2.8,2.7-4.5,3.6c-1.4,0.8-3.1,1-5.3,0.7c-2.1-0.3-4.2-0.9-6.4-1.9c-2.1-1-4-2.2-5.7-3.6c-1.6-1.5-2.7-3.1-3.1-4.8
			c-0.7-2.3-0.8-4.9-0.4-7.7c0.4-2.8,1.1-5.5,2.1-8.1c1-2.6,2.1-5.1,3.4-7.3c1.3-2.2,2.6-3.9,3.8-5c0.4-0.4,0.9-0.8,1.4-1.2
			c0.5-0.3,1-0.7,1.4-1.2c-0.3-1.8-0.6-3.7-0.7-5.5c-0.1-1.9,0.3-3.7,1.3-5.4c0.8-1.4,2.4-2.3,4.9-2.7c2.5-0.4,5.1-0.2,7.8,0.6
			c2.7,0.8,5.2,2.2,7.5,4.3c2.3,2.1,3.6,4.9,4,8.3c0.4,3.2,0.4,6.3-0.1,9.2c-0.5,2.9-1.1,6-1.8,9.1c0.8,0.5,2.1,0.9,3.8,1.2
			C578.9,275.6,580.6,275.6,582.4,275.3z M549.3,290.2c3.4-2,5.9-4.3,7.5-7c1.6-2.7,3-5.5,4.2-8.6c-3-2.1-5.4-4.7-7-7.9
			c-0.4,0.4-1,1.6-1.7,3.5c-0.7,1.9-1.4,4.1-2,6.6c-0.6,2.5-1.1,4.9-1.4,7.4C548.7,286.6,548.8,288.6,549.3,290.2z M563,267.2
			c0.5-1.2,0.9-2.7,1-4.4c0.2-1.7,0.2-3.4,0.1-5.1s-0.3-3.2-0.6-4.6c-0.3-1.3-0.6-2.3-1-2.9c-1.4,1.7-2,4.1-1.9,7.1
			C560.7,260.5,561.5,263.7,563,267.2z"/>
		<path class="st21" d="M634.8,257.4c0.3-0.6,0.7-0.9,1.4-0.9c0.7,0,1.3,0.2,1.9,0.6c0.6,0.4,1.1,0.9,1.6,1.6
			c0.4,0.7,0.5,1.3,0.3,1.9c-1.4,3.3-3.1,6.6-5.1,9.9c-2,3.3-4.1,6.4-6.2,9.2c-2.2,2.9-4.3,5.3-6.4,7.4s-3.9,3.6-5.6,4.4
			c-1.1,0.6-2.5,0.8-4,0.7c-1.6-0.1-3.1-0.5-4.5-1c-1.5-0.5-2.8-1.2-3.9-2.1c-1.1-0.9-1.8-1.7-2.1-2.6c-0.3-1.5-0.3-3.4,0.1-5.7
			c0.4-2.3,1-4.7,1.8-7c0.7-2.3,1.5-4.5,2.1-6.4c0.7-1.9,1.1-3.2,1.3-3.8c-1.7,1.5-3.8,3.7-6,6.6c-2.3,2.9-4.6,6.1-6.8,9.5
			c-2.3,3.4-4.4,6.7-6.3,9.9c-2,3.2-3.4,5.8-4.4,7.8c-0.4,0.9-1.3,1.3-2.5,1.4c-1.3,0-2.6-0.2-3.9-0.7c-1.3-0.5-2.5-1.1-3.5-1.9
			c-1-0.8-1.4-1.6-1.1-2.5c0.7-2.6,1.8-6.1,3.4-10.5c1.6-4.4,3.4-9.2,5.5-14.4c2.1-5.2,4.4-10.6,6.8-16.2c2.5-5.6,5-10.9,7.5-15.9
			c2.6-5,5.1-9.4,7.5-13.4c2.5-3.9,4.7-6.9,6.8-8.8c1.1-1.1,2.5-1.6,4.2-1.4c1.6,0.2,3.2,0.7,4.5,1.6c1.4,0.8,2.4,1.8,3.1,3.1
			c0.7,1.2,0.7,2.3,0.1,3.1c-1.1,0.5-2.9,2.3-5.4,5.3c-2.5,3-5.2,6.9-8.2,11.6c-3,4.7-6,10-9,15.9c-3,5.9-5.6,12-7.8,18.3
			c1.4-2,2.9-4.1,4.5-6.3c1.6-2.2,3.3-4.4,5-6.4s3.4-4,5.1-5.7c1.7-1.7,3.3-3,4.9-4c1.1-0.7,2.4-0.9,4-0.7c1.5,0.2,2.9,0.7,4.2,1.5
			c1.3,0.8,2.3,1.7,3,2.9c0.7,1.1,0.8,2.3,0.3,3.4c-0.8,1.7-1.8,3.8-2.9,6.2c-1.2,2.4-2.3,5-3.4,7.6c-1.1,2.6-2,5.2-2.9,7.7
			c-0.8,2.5-1.2,4.6-1.2,6.4c2-1,4-2.5,6-4.4c2-1.9,3.9-4,5.9-6.5c1.9-2.5,3.7-5.1,5.5-8C631.6,263.2,633.2,260.3,634.8,257.4z"/>
		<path class="st21" d="M673.2,257.3c1.2-0.2,2.6,0.1,4.2,0.9c1.6,0.8,2.7,1.5,3.4,2.1c-0.3,0.3-0.6,0.5-0.7,0.6c-0.1,0-0.3,0-0.5,0
			c-0.2,0-0.4-0.1-0.7-0.2c-0.3-0.1-0.7-0.1-1.2,0c-1.3,0.3-3.2,1.1-5.7,2.5c-2.5,1.4-5.1,3-7.8,4.8c-2.7,1.8-5.2,3.5-7.5,5.2
			c-2.3,1.7-3.8,2.9-4.5,3.7c0.4,0.7,0.9,1.3,1.3,2c0.4,0.6,0.9,1.3,1.3,1.9c1.3,2.3,1.9,4.7,1.7,7c-0.2,2.3-0.9,4.6-2.1,6.8
			c-1.3,2.2-2.9,4.3-5,6.2c-2.1,1.9-4.3,3.5-6.6,4.8c-1.6,0.9-3.3,1.5-5.3,1.9s-3.9,0.5-5.7,0.4c-1.9-0.1-3.6-0.5-5.2-1.1
			c-1.6-0.6-2.9-1.5-3.8-2.7s-1.4-2.6-1.4-4.2c0-1.6,0.6-3.6,1.9-5.7c2-3.3,4.6-6.4,7.7-9.2c3.2-2.9,6.4-5.5,9.7-8.1
			c-1.6-2.3-3.1-4.4-4.7-6.4c-1.6-2-2.7-4.3-3.3-6.8c-0.5-2.3-0.6-4.5-0.3-6.8c0.3-2.3,0.9-4.5,1.9-6.6c1-2.1,2.2-4,3.7-5.8
			c1.5-1.8,3.2-3.3,5.1-4.6c1-0.6,2.1-0.9,3.4-0.8c1.3,0,2.6,0.3,3.9,0.7c1.3,0.4,2.5,1,3.6,1.6c1.1,0.6,1.9,1.1,2.5,1.6
			c2.3-3.6,4.2-6.3,5.9-8.1c1.7-1.8,3.1-3.1,4.1-4.1c0.6-0.4,1.4-0.3,2.5,0.3c1,0.7,2,1.5,2.9,2.6c0.9,1.1,1.6,2.2,2.1,3.3
			c0.5,1.1,0.4,1.9-0.2,2.3c-1.4,1-3,2.5-4.9,4.5c-1.9,2.1-3.7,4.3-5.3,6.6c-1.6,2.3-2.9,4.6-3.8,6.8c-0.9,2.2-1.1,4-0.5,5.4
			c-0.4,0.2-1,0.1-1.8-0.1c-0.7-0.3-1.5-0.7-2.2-1.2c-0.7-0.5-1.4-1.2-2-2c-0.6-0.8-1-1.7-1.3-2.7c-0.2-0.7-0.2-1.5,0-2.4
			c0.2-0.9,0.4-1.8,0.7-2.7c0.3-0.9,0.6-1.7,0.9-2.5c0.3-0.8,0.6-1.4,0.8-1.8c-1.6-0.1-3.2,0.8-4.6,2.7c-1.4,1.9-2.5,4.1-3.2,6.7
			c-0.7,2.6-1,5.3-0.8,8.1c0.2,2.8,1.1,5.2,2.7,7.1c1.6-1,3.6-2.3,5.8-3.9c2.2-1.6,4.4-3.1,6.7-4.6c2.3-1.5,4.5-2.8,6.7-4
			C669.7,258.3,671.6,257.6,673.2,257.3z M631.2,299.8c1.2-0.1,2.7-0.8,4.4-2c1.7-1.3,3.3-2.8,4.7-4.5c1.4-1.7,2.6-3.5,3.4-5.3
			c0.8-1.8,1-3.3,0.5-4.4c-2.7,2.5-5.2,5-7.6,7.6C634.1,293.7,632.4,296.6,631.2,299.8z"/>
		<path class="st21" d="M729.3,220.4c3.2,0.9,5.5,2.5,6.8,4.8c0.7,1,1.2,2.1,1.5,3.3c0.3,1.1,0.4,2.2,0.3,3.3
			c-0.2,1.2-0.4,2.1-0.7,2.8c-0.3,0.6-0.8,1.2-1.6,1.6c0.5-3.9-2.7-6.5-9.8-7.8c-7.1-1.2-15.5-1-25.1,0.5
			c-7.1,9.7-13.2,20.5-18.2,32.2c-2.7,6-4.8,11.5-6.3,16.6c-1.5,5.1-2.5,9.8-2.9,14.1c-0.8,8.7,1.8,13,7.7,13
			c-3.1,3.1-7,3.7-11.7,1.7c-4.8-2-7.6-6.4-8.5-13.1c-0.1-3,0.4-6.7,1.4-11c1-4.3,2.6-9.3,4.7-15c2.3-5.7,4.7-11.4,7.3-17
			c2.6-5.6,5.5-11.2,8.6-16.8c-2.6,1-5,2-7.3,3.1c-2.3,1.1-4.4,2.3-6.4,3.6c-0.8,0.6-1.7,0.6-2.7-0.1c-1-0.5-2.1-1.5-3.1-2.9
			c-0.9-1-1.5-2.1-2-3.3c-0.3-1.2,0-2,0.8-2.5c4.2-1.9,8.6-3.6,13.1-5.1c4.5-1.5,9.2-2.9,14.2-4.1c1.7-2.9,3.5-5.4,5.2-7.5
			c1.7-2.2,3.4-4.1,4.9-5.7c1.2-1,2.9-1,5.2,0c2.2,0.9,3.9,2.2,5.2,4c1.2,1.8,1.1,3.6-0.3,5.2c-0.2,0.2-0.3,0.3-0.5,0.4
			c-0.1,0.1-0.3,0.2-0.5,0.4C716.6,218.6,723.5,219,729.3,220.4z M717.6,260.3c0.8-0.8,1.6-1,2.3-0.8c0.4,0,0.8,0.1,1.2,0.3
			c0.3,0.2,0.7,0.5,0.9,0.7c0.4,0.6,0.6,1.2,0.5,1.8c-0.8,1.2-1.7,2.8-2.7,4.6c-1,1.9-2.2,3.9-3.5,6.2c-1.3,2.3-2.7,4.4-4.3,6.4
			c-1.6,2-3.3,3.9-5.1,5.7c-3.6,3.5-6.9,5.7-9.9,6.6c-2.7,0.9-5.6,0.4-8.8-1.3c-3.1-1.6-4.7-3.9-4.7-6.9c0.3-2,0.8-4.3,1.6-7
			c0.8-2.6,1.9-5.7,3.3-9.2c2.9-6.8,5.9-12.7,9.2-17.4c0.9-0.9,2.3-1,4.4-0.5c2,0.3,3.9,1.1,5.6,2.3c1.5,1.2,1.9,2.4,1.4,3.6
			c-10.4,17.6-14,26.2-10.8,25.7C701.5,281.1,707.9,274.1,717.6,260.3z M712.6,246.3c-0.8,1-2,1.3-3.5,1c-1.7-0.3-3.2-0.8-4.3-1.6
			c-1.4-0.8-2-1.6-1.8-2.5c0.4-1.3,0.8-2.6,1.2-3.9c0.4-1.3,0.9-2.6,1.5-3.8c0.6-1.2,1.1-2.3,1.6-3.1c0.5-0.9,0.9-1.6,1.2-2.1
			c1-1.1,2.5-1.5,4.7-1c1.1,0.3,2.2,0.6,3.1,0.9c1,0.3,1.8,0.8,2.6,1.3c0.9,0.7,1.4,1.3,1.6,1.9c0.2,0.6,0.1,1.2-0.1,1.9
			c-0.3,0.3-0.5,0.7-0.8,1c-0.3,0.3-0.6,0.8-0.9,1.3c-0.4,0.7-0.9,1.4-1.4,2.2c-0.5,0.8-1,1.6-1.6,2.3c-0.6,0.7-1.1,1.4-1.6,2.1
			C713.6,245,713.1,245.7,712.6,246.3z"/>
		<path class="st21" d="M768,255.4c0.3-0.3,0.8-0.5,1.5-0.5c0.7,0,1.4,0.2,2.1,0.6c0.7,0.3,1.2,0.8,1.6,1.4c0.4,0.6,0.4,1.1,0.1,1.8
			c-1.6,2.9-3.5,6-5.7,9.6c-2.1,3.5-4.4,7-6.8,10.3c-2.4,3.4-4.8,6.4-7.3,9.2c-2.5,2.7-5,4.7-7.4,5.8c-1.3,0.6-2.7,0.8-4.1,0.6
			c-1.4-0.2-2.7-0.7-3.9-1.4c-1.2-0.7-2.2-1.6-3-2.7c-0.8-1.1-1.3-2.1-1.4-3.2c-0.2-1.4,0-3.3,0.5-5.7c0.5-2.4,1.1-4.6,1.7-6.6
			c-1,1.2-2.1,2.6-3.3,4.2c-1.2,1.6-2.4,3.3-3.8,5.1c-1.4,1.8-2.8,3.6-4.4,5.5c-1.5,1.8-3.1,3.5-4.7,5.1c-0.8,0.8-2,1.1-3.6,0.9
			c-1.6-0.2-3.2-0.6-4.7-1.4c-1.6-0.7-2.9-1.7-4.1-2.9s-1.7-2.4-1.5-3.7c0.3-3.3,1-6.8,2.3-10.5c1.3-3.7,2.9-7.3,4.7-10.9
			c1.9-3.5,3.9-6.8,6.2-9.8c2.3-3,4.6-5.5,6.8-7.4c1.6-1.3,3.2-2,4.6-2.2c1.4-0.2,2.7,0,4,0.5c1.3,0.5,2.6,1.2,3.9,2.1
			c1.3,0.9,2.7,1.8,4.2,2.7c1-1,1.9-2.1,2.8-3.3s1.9-2.3,2.9-3.4c0.6-0.8,1.6-1.1,2.9-0.9c1.3,0.2,2.6,0.6,3.8,1.4
			c1.2,0.8,2.2,1.7,2.9,2.8c0.7,1.1,0.8,2.1,0.2,3.1c-2.9,5-5.3,9.5-7.1,13.4c-1.8,3.9-3.1,7.2-3.9,9.9c-0.8,2.7-1.2,4.7-1.2,6.1
			c0,1.4,0.4,2.1,1,2.1c1.7-0.1,4.4-2.4,7.9-7C758.4,271,762.8,264.3,768,255.4z M736.4,260.4c0.3-0.3,0.4-1,0.4-1.8
			c0-0.9-0.2-1.7-0.5-2.4c-0.3-0.7-0.8-1.2-1.4-1.4c-0.6-0.2-1.4,0.3-2.3,1.3c-2,1.9-3.8,4.2-5.5,6.8s-3.2,5.2-4.4,7.7
			c-1.3,2.5-2.3,4.8-3.1,7c-0.8,2.1-1.2,3.7-1.2,4.7c1-0.8,2.2-2.1,3.8-3.8c1.6-1.8,3.3-3.7,5-5.9c1.7-2.2,3.4-4.3,5.1-6.5
			C734,263.9,735.4,262,736.4,260.4z"/>
		<path class="st21" d="M816.1,259.8c0.3-0.6,0.7-0.9,1.4-0.8c0.7,0.1,1.3,0.3,2,0.6c0.7,0.3,1.2,0.8,1.6,1.2
			c0.4,0.5,0.6,0.8,0.5,1.1c-1.2,2.5-2.7,5.3-4.5,8.3c-1.8,3-3.7,6-5.7,8.8c-2,2.8-4.1,5.4-6.2,7.6c-2.1,2.3-4.1,3.9-5.9,4.8
			c-1.2,0.6-2.6,0.8-4.2,0.7c-1.6-0.1-3.1-0.5-4.5-1c-1.5-0.5-2.8-1.2-3.9-2.1c-1.1-0.9-1.8-1.7-1.9-2.6c-0.3-1.5-0.3-3.5,0-6
			c0.3-2.5,0.8-5,1.5-7.5c0.7-2.5,1.3-4.8,2-6.8c0.7-2,1.1-3.4,1.4-4c-1.7,1.5-3.7,3.6-5.8,6.4c-2.2,2.8-4.3,5.7-6.4,8.8
			c-2.1,3.1-4.1,6.2-5.8,9.2c-1.8,3-3.1,5.5-4.1,7.5c-0.4,0.8-1.3,1.2-2.6,1.2c-1.3,0-2.6-0.1-3.9-0.6c-1.3-0.4-2.4-1-3.4-1.8
			c-1-0.8-1.4-1.6-1.1-2.3c0.5-2.1,1.3-4.8,2.3-8.3c1-3.4,2.3-7.1,3.6-11.2c1.4-4,2.9-8.2,4.7-12.4c1.7-4.2,3.6-8.2,5.7-11.8
			c0.6-1.2,1.6-1.8,2.9-1.8c1.3,0,2.7,0.3,4,0.9c1.3,0.6,2.4,1.4,3.2,2.3c0.8,1,1.1,1.8,0.8,2.5c-0.9,1.8-1.8,3.7-2.8,5.5
			c-1,1.9-1.9,3.6-2.9,5.2c-0.9,1.6-1.7,3-2.3,4.2c-0.7,1.2-1,2-1.1,2.5c1.4-2,2.9-4,4.5-6c1.6-2,3.2-3.9,4.8-5.6
			c1.6-1.7,3.2-3.3,4.9-4.7c1.6-1.4,3.3-2.6,4.8-3.5c1-0.6,2.3-0.8,3.8-0.5c1.5,0.3,2.9,0.8,4.2,1.6c1.3,0.8,2.3,1.7,3.1,2.8
			c0.7,1.1,0.9,2.1,0.5,3.2c-0.7,1.7-1.6,3.9-2.7,6.4c-1.1,2.6-2.2,5.2-3.3,8.1c-1,2.8-2,5.5-2.7,8.1c-0.8,2.6-1.2,4.8-1.2,6.6
			c1.6-1,3.4-2.3,5.3-4c1.9-1.7,3.8-3.7,5.7-6c1.9-2.3,3.7-4.7,5.4-7.3C813.2,265,814.7,262.4,816.1,259.8z"/>
	</g>
	<g class="st20">
		<path class="st22" d="M486.7,370c-1.6-1.6-2.4-3.6-2.4-5.9h1.5c0,1.9,0.7,3.5,2,4.8c1.3,1.3,3,2,4.8,2c1.9,0,3.5-0.7,4.8-2
			c1.3-1.3,2-2.9,2-4.8c0-1.9-0.7-3.5-2-4.9c-1.3-1.3-3-2-4.8-2c-2.3,0-4.3-0.8-5.9-2.4c-1.6-1.6-2.4-3.6-2.4-5.9s0.8-4.3,2.4-6
			c1.6-1.6,3.6-2.4,5.9-2.4c2.3,0,4.3,0.8,6,2.4c1.6,1.6,2.4,3.6,2.4,6h-1.5c0-1.9-0.7-3.5-2-4.8c-1.3-1.3-3-2-4.8-2
			c-1.9,0-3.5,0.7-4.8,2c-1.3,1.3-2,3-2,4.8s0.7,3.5,2,4.8c1.3,1.3,3,2,4.8,2c2.3,0,4.3,0.8,6,2.4c1.6,1.6,2.4,3.6,2.4,6
			c0,2.3-0.8,4.3-2.4,5.9c-1.6,1.6-3.6,2.4-6,2.4C490.3,372.4,488.3,371.6,486.7,370z"/>
		<path class="st22" d="M535.8,341.9v13.7H551v1.5h-15.2v13.7H551v1.5h-16.8v-32H551v1.5H535.8z"/>
		<path class="st22" d="M593.7,356.4l7.5,15l-1.2,1l-7.2-14.3l-7.2,14.3l-1.2-1l7.5-15l-7.5-15.1l1.2-1l7.2,14.3l7.2-14.3l1.2,1
			L593.7,356.4z"/>
		<path class="st22" d="M637,370c-1.6-1.6-2.4-3.6-2.4-5.9h1.5c0,1.9,0.7,3.5,2,4.8c1.3,1.3,3,2,4.8,2c1.9,0,3.5-0.7,4.8-2
			c1.3-1.3,2-2.9,2-4.8c0-1.9-0.7-3.5-2-4.9c-1.3-1.3-3-2-4.8-2c-2.3,0-4.3-0.8-5.9-2.4c-1.6-1.6-2.4-3.6-2.4-5.9s0.8-4.3,2.4-6
			s3.6-2.4,5.9-2.4c2.3,0,4.3,0.8,6,2.4s2.4,3.6,2.4,6h-1.5c0-1.9-0.7-3.5-2-4.8c-1.3-1.3-3-2-4.8-2c-1.9,0-3.5,0.7-4.8,2
			c-1.3,1.3-2,3-2,4.8s0.7,3.5,2,4.8c1.3,1.3,3,2,4.8,2c2.3,0,4.3,0.8,6,2.4s2.4,3.6,2.4,6c0,2.3-0.8,4.3-2.4,5.9
			c-1.6,1.6-3.6,2.4-6,2.4C640.6,372.4,638.6,371.6,637,370z"/>
		<path class="st22" d="M701.4,340.4v32h-1.5v-15.2h-13.7v15.2h-1.5v-32h1.5v15.3h13.7v-15.3H701.4z"/>
		<path class="st22" d="M749,342.8c1.6,1.7,2.4,3.6,2.4,6V364c0,2.3-0.8,4.3-2.4,5.9c-1.6,1.7-3.6,2.5-5.9,2.5s-4.3-0.8-5.9-2.5
			c-1.7-1.6-2.5-3.6-2.5-5.9v-15.2c0-2.3,0.8-4.3,2.5-6c1.6-1.6,3.6-2.4,5.9-2.4S747.4,341.2,749,342.8z M750,348.8
			c0-1.9-0.7-3.5-2-4.8c-1.3-1.3-3-2-4.8-2c-1.9,0-3.5,0.7-4.8,2c-1.3,1.3-2,3-2,4.8V364c0,1.9,0.7,3.5,2,4.8c1.3,1.3,3,2,4.8,2
			c1.9,0,3.5-0.7,4.8-2c1.3-1.3,2-3,2-4.8V348.8z"/>
		<path class="st22" d="M793.2,340.4c2.3,0,4.3,0.8,5.9,2.4c1.6,1.7,2.4,3.6,2.4,6c0,2.3-0.8,4.3-2.4,5.9c-1.6,1.7-3.6,2.5-5.9,2.5
			h-6.9v15.2h-1.5v-32H793.2z M793.2,355.7c1.9,0,3.5-0.7,4.8-2s2-3,2-4.8s-0.7-3.5-2-4.8c-1.3-1.3-3-2-4.8-2h-6.9v13.7H793.2z"/>
	</g>
</g>
<g id="Capa_2" class="st0">
	<g class="st20">
		<path class="st23" d="M410.9,233.7c-4.7-16.2-9.3-31.6-13.8-47.1c-12.5,3.7-24.4,7.6-36.5,10.7c-37.4,9.6-75.3,11.7-113.4,5.5
			c-3-0.5-6.1-1.2-5.7-5.5c0.4-4.3,3.4-4.6,6.6-4c50,8.4,98.4,1.1,145.8-16.1c0.5-0.2,1-0.3,1.5-0.6c4.3-2,7.9-2,9.6,4.1
			c2.7-1,5.1-1.9,7.5-2.7c9.8-3.1,20.1,2.3,23.5,12.4c1.9,5.8,3.9,11.7,5.2,17.7c2,8.9-2.3,16.9-10.4,19.9
			c-3.4,1.3-6.9,2.5-10.7,3.9c1.9,6.7-1.4,9.2-6.9,10.8c-10.2,2.9-20.4,6.3-30.3,10c-20.5,7.7-33.6,23.2-41,44.3
			c-3.1,8.8-6.1,17.7-9.6,26.3c-0.8,1.8-3.7,2.7-5.7,4c-0.9-2.1-3.1-4.5-2.6-6.1c5.7-20.2,11.8-40.3,25.9-56.3
			c9.7-11,21.4-18.5,35-22.8C393.2,239.4,401.7,236.7,410.9,233.7z M407.4,189.9c3,10.4,5.7,20,8.5,29.5c0.3,1.1,1,2.6,1.9,2.9
			c5.9,2.2,15.1-6.7,13.5-13.2c-1.4-5.6-3.2-11.1-5.1-16.5c-1.4-3.9-4.1-6.5-8.3-5.8C414.4,187.3,411.2,188.7,407.4,189.9z"/>
		<path class="st23" d="M175.4,180.9c2-5.2,5.1-5.8,9.7-4.3c12.2,4.1,24.6,7.7,37,11.5c3.8,1.1,5.7,3.5,3.3,7.1
			c-0.9,1.3-4,1.9-5.7,1.5c-10.9-3-21.7-6.4-32.6-9.6c-1-0.3-2-0.5-3.5-0.8c-4.4,15.7-8.8,31.1-13.3,47.3c6.7,2.2,13.1,4.6,19.6,6.3
			c21,5.3,38,17,50.6,35c4.5,6.3,7.5,14,10.1,21.4c7.1,20,13.6,40.1,20.2,60.3c3.3,10,4.4,10.9,14.6,10.9c5,0,10.1-0.1,15.1,0
			c5.8,0.1,9.5-2.3,11-8.5c1-4.2,2.6-8.3,3.9-12.4c1-2.9,3.2-5.1,5.9-3.4c1.6,1,3,4.5,2.6,6.5c-0.9,4.8-2.8,9.4-4.3,14
			c-2.7,7.8-8.1,12.4-15.9,13c-8,0.6-16,0.6-24,0.1c-8.8-0.6-14-6.2-16.8-14.8c-7.1-21.7-13.8-43.6-21.9-64.9
			c-7.8-20.5-21.2-36.2-41.6-43.8c-10.6-4-21.5-7.1-32.3-10.7c-7-2.3-7-2.3-6.6-10.5c-2.7-1-5.6-2-8.5-3.1
			c-9.7-3.7-14-12.2-11.2-22.5c1.5-5.4,3.2-10.8,5-16.1c3.6-10.4,11.8-14.8,21.9-11.9C170.1,179.2,172.4,180,175.4,180.9z
			 M173.2,189.7c-3.7-1-6.7-2.6-9.6-2.4c-2.8,0.2-6.8,1.6-7.8,3.7c-2.8,6.4-5,13.2-6.3,20.1c-1.1,5.8,8.5,13.4,13.6,11.3
			c0.8-0.3,1.4-1.6,1.7-2.5C167.5,210.1,170.2,200.4,173.2,189.7z"/>
		<path class="st23" d="M277.6,303.1c0-1.3-0.1-2.6,0-3.8c0.6-4.6-1-7.3-5-10c-10.3-6.8-15.2-17.2-15.1-29.9c0-3.3-0.9-4.9-3.5-6.3
			c-3.2-1.8-6.4-3.8-9.5-5.7c-7.2-4.5-8.1-8.4-4-16.2c0.3-0.6,0.7-1.3,1-1.9c5-9.1,8.2-10,16.7-4.8c1.1,0.6,2.2,1.2,3.1,2
			c5.3,4.3,10.1,5.3,16.8,1.6c9.2-5,19.3-3.7,28.4,1.9c2.6,1.6,4.6,1.7,7.1,0c3.6-2.5,7.4-4.7,11.2-6.9c5.3-3,10.3-1.6,13.6,3.6
			c0.7,1.1,1.2,2.2,1.8,3.3c5.4,9.9,4,14.4-6.1,19c-1,0.4-1.9,0.9-2.8,1.4c-5.2,2.5-8.4,5.5-8.4,12.8c-0.1,12.2-6.5,21.5-16.6,28
			c-1.5,1-2.9,3.5-3,5.4c-0.4,4.9,0,9.8-0.2,14.7c-0.2,5.9-3.1,8.9-8.7,9.4c-1.4,0.1-2.8,0.1-4.2,0.1c-10.3,0-12.6-2.4-12.7-13.1
			C277.6,306,277.6,304.6,277.6,303.1z M301.8,238c-7.8-4.4-15.3-4.3-22.7-0.2c-0.1,10.1-4.1,17.4-12.3,22.4
			c-0.1,9.6,3.8,16.5,11.9,21.6c6.6-5,16.2-5,24,0.1c8.1-5.8,11.8-12.8,11.5-21.7C306.4,256.4,301.3,247.6,301.8,238z M286.8,310.5
			c2.6,0,4.9,0,7.1,0c0-7.7,0-14.9,0-22.1c-2.5,0-4.7,0-7.1,0C286.8,296,286.8,303.2,286.8,310.5z M329.5,230.9
			c-6.4,3.9-12.5,7.6-18.8,11.5c1.5,2.8,2.7,4.9,4,7.3c6.5-4.1,12.5-7.9,18.7-11.8C331.9,235.2,330.8,233.2,329.5,230.9z M251.1,231
			c-1.3,2.4-2.5,4.5-3.9,7.1c6.4,3.9,12.5,7.6,18.9,11.5c1.3-2.5,2.5-4.7,3.7-7.1C263.5,238.7,257.7,235.1,251.1,231z"/>
		<path class="st23" d="M198.2,202.1c-2.9,9.3-5.2,17.6-8.1,25.8c-0.5,1.3-3.8,2.9-4.9,2.3c-1.6-0.8-3.5-3.8-3.1-5.2
			c2.1-8.2,4.6-16.4,7.4-24.4c0.5-1.3,3.4-2.7,5-2.4C195.9,198.5,197.1,200.8,198.2,202.1z"/>
		<path class="st23" d="M399.5,226.5c-1.2,1.3-2.4,3.4-4,3.8c-1.4,0.3-4.2-0.9-4.6-2.1c-2.8-8.4-5.3-16.9-7.5-25.4
			c-0.3-1.2,1.5-4.1,2.7-4.4c1.6-0.3,4.6,0.7,5.1,2C394.2,208.7,396.6,217.2,399.5,226.5z"/>
	</g>
</g>
</svg>
