<?xml version="1.0" encoding="utf-8"?>
<!-- Generator: Adobe Illustrator 18.1.1, SVG Export Plug-In . SVG Version: 6.00 Build 0)  -->
<svg version="1.1" id="Layer_1" xmlns="http://www.w3.org/2000/svg" xmlns:xlink="http://www.w3.org/1999/xlink" x="0px" y="0px"
	 viewBox="0 0 700 220" enable-background="new 0 0 700 220" xml:space="preserve">
<g opacity="0.6">
	<g>
		<g>
			<path fill="#EADFE8" d="M233.8,164.4c-5.8-3.6-2.8-15.3,1-19.5c-0.8-0.1-1.6-0.2-2.4-0.3c4.3,6.9,6.1,21.7,16.5,22.4
				c12,0.7,12.1-15.5,12.1-23.6c0-1.9-3-1.9-3,0c-0.1,8.7,3.7,16.4,7.5,24.1c3.7,7.6,8.9,16.9,6.5,25.7c-1.8,6.2-7.2,14.4-13.9,16.1
				c-4,1-6.6-1.5-8.4-4.8c-2.4-4.4-2.3-8.6-0.1-13.1c5.6-11.8,17.4-19.1,24.3-30c3-4.7,5.7-9.5,7.9-14.6c1.4-3.3,3.6-8.1,2.4-11.7
				c-1.2-3.6-5.9-4.1-8.7-2c-4.2,3.2-3.7,11.4-1.3,15.5c0.9,1.7,3.5,0.2,2.6-1.5c-1.4-2.5-1.9-7-0.7-9.7c1.2-2.6,4.9-3.9,5.4-0.4
				c0.7,4.8-3.4,11.1-5.5,15.1c-2.1,3.9-4.4,8-7.1,11.5c-4.1,5.3-9.3,9.8-13.7,14.9c-4.3,4.9-9.1,10.7-10.1,17.5
				c-0.8,5.3,1.8,12.1,6.4,15.1c9.6,6.3,20-7.6,22.9-15.2c6.9-18.3-13.4-34.4-13.2-52.4c-1,0-2,0-3,0c0,5.9-0.5,25.8-11.4,19.8
				c-6.8-3.7-7.8-14-11.5-20.1c-0.5-0.8-1.7-1-2.4-0.3c-5.1,5.7-8,19.4-0.4,24.2C233.9,168,235.4,165.4,233.8,164.4L233.8,164.4z"/>
		</g>
	</g>
	<g>
		<g>
			<path fill="#EADFE8" d="M294,137.8c-2.2-11.1-10.5-16.7-21.6-13.8c-11,2.9-21.5,11.6-26.8,21.6c-5.6,10.6-2.3,21.8,7.6,28.7
				c10.8,7.5,25,4.1,35.3-2.5c11-7.1,22.1-20.4,18.7-34.4c-0.3-1.3-2-1.4-2.7-0.4c-6.7,9.5-9.2,25.9-3.3,36.2
				c0.3,0.5,1.1,0.9,1.7,0.7c6.3-2.4,6.6-8.3,11.2-12.3c-0.7,0-1.4,0-2.1,0c2.6,3.3,2.9,7.9,5.4,11.3c2.3,3.3,5.6,4.4,9.5,4
				c1.9-0.2,1.9-3.2,0-3c-9.1,0.8-8.5-9-12.8-14.4c-0.5-0.7-1.6-0.5-2.1,0c-4,3.4-4.7,9.5-9.9,11.5c0.6,0.2,1.1,0.5,1.7,0.7
				c-5.4-9.4-2.7-24.6,3.3-33.2c-0.9-0.1-1.8-0.2-2.7-0.4c5.1,21-25.1,42.6-44,36.4c-10.2-3.3-17.3-14.5-13.3-24.8
				c3.6-9.1,12-16.7,20.7-20.8c4.3-2,9.5-3.6,14.2-2.3c5.7,1.5,8.1,6.7,9.2,12.1C291.4,140.5,294.3,139.7,294,137.8L294,137.8z"/>
		</g>
	</g>
</g>
<g>
	<path fill="#FFFFFF" d="M359.7,45.6c-3.4,0.5-6.7,2.1-9.9,4.7c-3.2,2.6-6.1,5.7-8.7,9.2c-2.6,3.6-4.8,7.3-6.6,11.2
		c-1.8,3.9-2.9,7.4-3.4,10.5c-0.5,3.1-0.3,5.6,0.7,7.3c1,1.8,2.9,2.3,5.8,1.5c-1,2-2.5,3-4.5,3.1c-2,0-4.1-0.6-6.1-1.9
		c-2-1.3-3.8-3.3-5.3-5.7c-1.5-2.5-2.2-5.2-2.1-8.3c0.1-2.8,0.9-5.7,2.4-8.9c1.5-3.2,3.5-6.3,5.9-9.4c2.4-3.1,5.2-6,8.4-8.8
		c3.2-2.7,6.5-5,9.9-6.9c3.5-1.9,6.9-3.2,10.3-3.9c3.4-0.7,6.7-0.7,9.7,0.2c2.1,0.7,3.8,1.8,5.1,3.3c1.3,1.5,2.2,3.3,2.7,5.2
		c0.5,1.9,0.7,4,0.5,6.2c-0.2,2.2-0.8,4.3-1.6,6.3c-0.9,1.8-2.1,4.4-3.8,7.7c-1.6,3.3-3.4,7-5.2,11c-1.8,4-3.6,8.1-5.3,12.3
		c-1.7,4.2-3.1,8-4.2,11.5c-1,3.5-1.6,6.4-1.7,8.8c-0.1,2.4,0.6,3.7,2.1,4.1c1.6,0.3,3.5-0.6,5.8-2.8c2.3-2.2,4.9-5.3,7.7-9.3
		c2.8-4,5.8-8.6,8.9-13.9c3.1-5.3,6.2-10.8,9.3-16.6c3.1-5.8,6-11.7,8.8-17.6c2.8-5.9,5.4-11.5,7.6-16.7c0.6-1.4,1.8-2.1,3.6-2.2
		c1.8-0.1,3.6,0.2,5.4,0.8c1.8,0.6,3.4,1.6,4.6,2.9c1.3,1.3,1.7,2.6,1.4,4c-1.7,5.2-3.6,11.8-5.7,19.7c-2.1,7.9-4.5,16.2-7.2,24.9
		c-2.7,8.7-5.7,17.1-9,25.3c-3.3,8.2-7,15.1-11.2,20.9c-4.2,5.9-8.6,10.3-12.9,13.3c-4.4,3-8.5,4.9-12.5,5.8
		c-3.9,0.9-7.5,0.8-10.7-0.1c-3.2-0.9-5.8-2.3-7.9-4.3c-2-1.9-3.3-4.2-3.9-6.8c-0.6-2.6-0.1-5.2,1.4-7.8c1.3,4.2,3.3,7.1,5.9,8.8
		c2.6,1.7,5.7,2.1,9,1.2c3.4-0.9,7-2.9,10.9-6.2c3.9-3.3,7.6-7.8,11.4-13.5c3.7-5.7,7.3-12.6,10.7-20.7c3.4-8.1,6.3-17.4,8.7-27.8
		c-1.9,3.5-4,7.2-6.2,11.2c-2.2,4-4.6,8-7.1,12c-2.5,3.9-5.1,7.6-7.8,11.1c-2.7,3.5-5.4,6.4-8.3,8.7c-2.8,2.3-5.6,3.9-8.4,4.7
		c-2.8,0.8-5.6,0.5-8.3-0.8c-3.5-1.7-5.7-4.2-6.8-7.5c-1.1-3.2-1.4-6.9-0.9-11c0.5-4.1,1.6-8.5,3.3-13.1c1.7-4.6,3.6-9.2,5.7-13.8
		c2-4.5,4.1-8.9,6.1-13c2-4.1,3.7-7.7,4.9-10.8c1.2-3.1,1.8-5.5,1.8-7.1C363,45.9,361.9,45.2,359.7,45.6z"/>
	<path fill="#FFFFFF" d="M451.4,109.3c0.7-0.1,1.2,0.2,1.5,0.7c0.3,0.6,0.5,1.2,0.5,2c0,0.7-0.2,1.4-0.5,2c-0.3,0.6-0.7,0.9-1.1,0.9
		c-2,0.3-3.9,0.3-5.6,0.3c-1.7-0.1-3.8-0.5-6.1-1.3c-0.4,0.9-1,2.1-1.7,3.6c-0.7,1.5-1.5,3.1-2.5,4.7c-1,1.6-2.2,3.2-3.5,4.7
		c-1.3,1.5-2.8,2.7-4.5,3.6c-1.4,0.8-3.1,1-5.3,0.7c-2.1-0.3-4.2-0.9-6.4-1.9c-2.1-1-4-2.2-5.7-3.6c-1.6-1.5-2.7-3.1-3.1-4.8
		c-0.7-2.3-0.8-4.9-0.4-7.7c0.4-2.8,1.1-5.5,2.1-8.1c1-2.6,2.1-5.1,3.4-7.3c1.3-2.2,2.6-3.9,3.8-5c0.4-0.4,0.9-0.8,1.4-1.2
		c0.5-0.3,1-0.7,1.4-1.2c-0.3-1.8-0.6-3.7-0.7-5.5c-0.1-1.9,0.3-3.7,1.3-5.4c0.8-1.4,2.4-2.3,4.9-2.7c2.5-0.4,5.1-0.2,7.8,0.6
		c2.7,0.8,5.2,2.2,7.5,4.3c2.3,2.1,3.6,4.9,4,8.3c0.4,3.2,0.4,6.3-0.1,9.2c-0.5,2.9-1.1,6-1.8,9.1c0.8,0.5,2.1,0.9,3.8,1.2
		C447.9,109.6,449.6,109.6,451.4,109.3z M418.3,124.2c3.4-2,5.9-4.3,7.5-7c1.6-2.7,3-5.5,4.2-8.6c-3-2.1-5.4-4.7-7-7.9
		c-0.4,0.4-1,1.6-1.7,3.5c-0.7,1.9-1.4,4.1-2,6.6c-0.6,2.5-1.1,4.9-1.4,7.4C417.7,120.6,417.8,122.6,418.3,124.2z M432,101.2
		c0.5-1.2,0.9-2.7,1-4.4c0.2-1.7,0.2-3.4,0.1-5.1s-0.3-3.2-0.6-4.6c-0.3-1.3-0.6-2.3-1-2.9c-1.4,1.7-2,4.1-1.9,7.1
		C429.7,94.5,430.5,97.7,432,101.2z"/>
	<path fill="#FFFFFF" d="M503.8,91.4c0.3-0.6,0.7-0.9,1.4-0.9c0.7,0,1.3,0.2,1.9,0.6c0.6,0.4,1.1,0.9,1.6,1.6
		c0.4,0.7,0.5,1.3,0.3,1.9c-1.4,3.3-3.1,6.6-5.1,9.9c-2,3.3-4.1,6.4-6.2,9.2c-2.2,2.9-4.3,5.3-6.4,7.4s-3.9,3.6-5.6,4.4
		c-1.1,0.6-2.5,0.8-4,0.7c-1.6-0.1-3.1-0.5-4.5-1c-1.5-0.5-2.8-1.2-3.9-2.1c-1.1-0.9-1.8-1.7-2.1-2.6c-0.3-1.5-0.3-3.4,0.1-5.7
		c0.4-2.3,1-4.7,1.8-7c0.7-2.3,1.5-4.5,2.1-6.4c0.7-1.9,1.1-3.2,1.3-3.8c-1.7,1.5-3.8,3.7-6,6.6c-2.3,2.9-4.6,6.1-6.8,9.5
		c-2.3,3.4-4.4,6.7-6.3,9.9c-2,3.2-3.4,5.8-4.4,7.8c-0.4,0.9-1.3,1.3-2.5,1.4c-1.3,0-2.6-0.2-3.9-0.7c-1.3-0.5-2.5-1.1-3.5-1.9
		c-1-0.8-1.4-1.6-1.1-2.5c0.7-2.6,1.8-6.1,3.4-10.5c1.6-4.4,3.4-9.2,5.5-14.4c2.1-5.2,4.4-10.6,6.8-16.2c2.5-5.6,5-10.9,7.5-15.9
		c2.6-5,5.1-9.4,7.5-13.4c2.5-3.9,4.7-6.9,6.8-8.8c1.1-1.1,2.5-1.6,4.2-1.4c1.6,0.2,3.2,0.7,4.5,1.6c1.4,0.8,2.4,1.8,3.1,3.1
		c0.7,1.2,0.7,2.3,0.1,3.1c-1.1,0.5-2.9,2.3-5.4,5.3c-2.5,3-5.2,6.9-8.2,11.6c-3,4.7-6,10-9,15.9c-3,5.9-5.6,12-7.8,18.3
		c1.4-2,2.9-4.1,4.5-6.3c1.6-2.2,3.3-4.4,5-6.4s3.4-4,5.1-5.7c1.7-1.7,3.3-3,4.9-4c1.1-0.7,2.4-0.9,4-0.7c1.5,0.2,2.9,0.7,4.2,1.5
		c1.3,0.8,2.3,1.7,3,2.9c0.7,1.1,0.8,2.3,0.3,3.4c-0.8,1.7-1.8,3.8-2.9,6.2c-1.2,2.4-2.3,5-3.4,7.6c-1.1,2.6-2,5.2-2.9,7.7
		c-0.8,2.5-1.2,4.6-1.2,6.4c2-1,4-2.5,6-4.4c2-1.9,3.9-4,5.9-6.5c1.9-2.5,3.7-5.1,5.5-8C500.6,97.2,502.2,94.3,503.8,91.4z"/>
	<path fill="#FFFFFF" d="M542.2,91.3c1.2-0.2,2.6,0.1,4.2,0.9c1.6,0.8,2.7,1.5,3.4,2.1c-0.3,0.3-0.6,0.5-0.7,0.6c-0.1,0-0.3,0-0.5,0
		c-0.2,0-0.4-0.1-0.7-0.2c-0.3-0.1-0.7-0.1-1.2,0c-1.3,0.3-3.2,1.1-5.7,2.5c-2.5,1.4-5.1,3-7.8,4.8c-2.7,1.8-5.2,3.5-7.5,5.2
		c-2.3,1.7-3.8,2.9-4.5,3.7c0.4,0.7,0.9,1.3,1.3,2c0.4,0.6,0.9,1.3,1.3,1.9c1.3,2.3,1.9,4.7,1.7,7c-0.2,2.3-0.9,4.6-2.1,6.8
		c-1.3,2.2-2.9,4.3-5,6.2c-2.1,1.9-4.3,3.5-6.6,4.8c-1.6,0.9-3.3,1.5-5.3,1.9s-3.9,0.5-5.7,0.4c-1.9-0.1-3.6-0.5-5.2-1.1
		c-1.6-0.6-2.9-1.5-3.8-2.7s-1.4-2.6-1.4-4.2c0-1.6,0.6-3.6,1.9-5.7c2-3.3,4.6-6.4,7.7-9.2c3.2-2.9,6.4-5.5,9.7-8.1
		c-1.6-2.3-3.1-4.4-4.7-6.4c-1.6-2-2.7-4.3-3.3-6.8c-0.5-2.3-0.6-4.5-0.3-6.8c0.3-2.3,0.9-4.5,1.9-6.6c1-2.1,2.2-4,3.7-5.8
		c1.5-1.8,3.2-3.3,5.1-4.6c1-0.6,2.1-0.9,3.4-0.8c1.3,0,2.6,0.3,3.9,0.7c1.3,0.4,2.5,1,3.6,1.6c1.1,0.6,1.9,1.1,2.5,1.6
		c2.3-3.6,4.2-6.3,5.9-8.1c1.7-1.8,3.1-3.1,4.1-4.1c0.6-0.4,1.4-0.3,2.5,0.3c1,0.7,2,1.5,2.9,2.6c0.9,1.1,1.6,2.2,2.1,3.3
		c0.5,1.1,0.4,1.9-0.2,2.3c-1.4,1-3,2.5-4.9,4.5c-1.9,2.1-3.7,4.3-5.3,6.6c-1.6,2.3-2.9,4.6-3.8,6.8c-0.9,2.2-1.1,4-0.5,5.4
		c-0.4,0.2-1,0.1-1.8-0.1c-0.7-0.3-1.5-0.7-2.2-1.2c-0.7-0.5-1.4-1.2-2-2c-0.6-0.8-1-1.7-1.3-2.7c-0.2-0.7-0.2-1.5,0-2.4
		c0.2-0.9,0.4-1.8,0.7-2.7c0.3-0.9,0.6-1.7,0.9-2.5c0.3-0.8,0.6-1.4,0.8-1.8c-1.6-0.1-3.2,0.8-4.6,2.7c-1.4,1.9-2.5,4.1-3.2,6.7
		c-0.7,2.6-1,5.3-0.8,8.1c0.2,2.8,1.1,5.2,2.7,7.1c1.6-1,3.6-2.3,5.8-3.9c2.2-1.6,4.4-3.1,6.7-4.6c2.3-1.5,4.5-2.8,6.7-4
		C538.7,92.3,540.6,91.6,542.2,91.3z M500.2,133.8c1.2-0.1,2.7-0.8,4.4-2c1.7-1.3,3.3-2.8,4.7-4.5c1.4-1.7,2.6-3.5,3.4-5.3
		c0.8-1.8,1-3.3,0.5-4.4c-2.7,2.5-5.2,5-7.6,7.6C503.1,127.7,501.4,130.6,500.2,133.8z"/>
	<path fill="#FFFFFF" d="M598.3,54.4c3.2,0.9,5.5,2.5,6.8,4.8c0.7,1,1.2,2.1,1.5,3.3c0.3,1.1,0.4,2.2,0.3,3.3
		c-0.2,1.2-0.4,2.1-0.7,2.8c-0.3,0.6-0.8,1.2-1.6,1.6c0.5-3.9-2.7-6.5-9.8-7.8c-7.1-1.2-15.5-1-25.1,0.5
		c-7.1,9.7-13.2,20.5-18.2,32.2c-2.7,6-4.8,11.5-6.3,16.6c-1.5,5.1-2.5,9.8-2.9,14.1c-0.8,8.7,1.8,13,7.7,13
		c-3.1,3.1-7,3.7-11.7,1.7c-4.8-2-7.6-6.4-8.5-13.1c-0.1-3,0.4-6.7,1.4-11c1-4.3,2.6-9.3,4.7-15c2.3-5.7,4.7-11.4,7.3-17
		c2.6-5.6,5.5-11.2,8.6-16.8c-2.6,1-5,2-7.3,3.1c-2.3,1.1-4.4,2.3-6.4,3.6c-0.8,0.6-1.7,0.6-2.7-0.1c-1-0.5-2.1-1.5-3.1-2.9
		c-0.9-1-1.5-2.1-2-3.3c-0.3-1.2,0-2,0.8-2.5c4.2-1.9,8.6-3.6,13.1-5.1c4.5-1.5,9.2-2.9,14.2-4.1c1.7-2.9,3.5-5.4,5.2-7.5
		c1.7-2.2,3.4-4.1,4.9-5.7c1.2-1,2.9-1,5.2,0c2.2,0.9,3.9,2.2,5.2,4c1.2,1.8,1.1,3.6-0.3,5.2c-0.2,0.2-0.3,0.3-0.5,0.4
		c-0.1,0.1-0.3,0.2-0.5,0.4C585.6,52.6,592.5,53,598.3,54.4z M586.6,94.3c0.8-0.8,1.6-1,2.3-0.8c0.4,0,0.8,0.1,1.2,0.3
		c0.3,0.2,0.7,0.5,0.9,0.7c0.4,0.6,0.6,1.2,0.5,1.8c-0.8,1.2-1.7,2.8-2.7,4.6c-1,1.9-2.2,3.9-3.5,6.2c-1.3,2.3-2.7,4.4-4.3,6.4
		c-1.6,2-3.3,3.9-5.1,5.7c-3.6,3.5-6.9,5.7-9.9,6.6c-2.7,0.9-5.6,0.4-8.8-1.3c-3.1-1.6-4.7-3.9-4.7-6.9c0.3-2,0.8-4.3,1.6-7
		c0.8-2.6,1.9-5.7,3.3-9.2c2.9-6.8,5.9-12.7,9.2-17.4c0.9-0.9,2.3-1,4.4-0.5c2,0.3,3.9,1.1,5.6,2.3c1.5,1.2,1.9,2.4,1.4,3.6
		c-10.4,17.6-14,26.2-10.8,25.7C570.5,115.1,576.9,108.1,586.6,94.3z M581.6,80.3c-0.8,1-2,1.3-3.5,1c-1.7-0.3-3.2-0.8-4.3-1.6
		c-1.4-0.8-2-1.6-1.8-2.5c0.4-1.3,0.8-2.6,1.2-3.9c0.4-1.3,0.9-2.6,1.5-3.8c0.6-1.2,1.1-2.3,1.6-3.1c0.5-0.9,0.9-1.6,1.2-2.1
		c1-1.1,2.5-1.5,4.7-1c1.1,0.3,2.2,0.6,3.1,0.9c1,0.3,1.8,0.8,2.6,1.3c0.9,0.7,1.4,1.3,1.6,1.9c0.2,0.6,0.1,1.2-0.1,1.9
		c-0.3,0.3-0.5,0.7-0.8,1c-0.3,0.3-0.6,0.8-0.9,1.3c-0.4,0.7-0.9,1.4-1.4,2.2c-0.5,0.8-1,1.6-1.6,2.3c-0.6,0.7-1.1,1.4-1.6,2.1
		C582.6,79,582.1,79.7,581.6,80.3z"/>
	<path fill="#FFFFFF" d="M637,89.4c0.3-0.3,0.8-0.5,1.5-0.5c0.7,0,1.4,0.2,2.1,0.6c0.7,0.3,1.2,0.8,1.6,1.4c0.4,0.6,0.4,1.1,0.1,1.8
		c-1.6,2.9-3.5,6-5.7,9.6c-2.1,3.5-4.4,7-6.8,10.3c-2.4,3.4-4.8,6.4-7.3,9.2c-2.5,2.7-5,4.7-7.4,5.8c-1.3,0.6-2.7,0.8-4.1,0.6
		c-1.4-0.2-2.7-0.7-3.9-1.4c-1.2-0.7-2.2-1.6-3-2.7c-0.8-1.1-1.3-2.1-1.4-3.2c-0.2-1.4,0-3.3,0.5-5.7c0.5-2.4,1.1-4.6,1.7-6.6
		c-1,1.2-2.1,2.6-3.3,4.2c-1.2,1.6-2.4,3.3-3.8,5.1c-1.4,1.8-2.8,3.6-4.4,5.5c-1.5,1.8-3.1,3.5-4.7,5.1c-0.8,0.8-2,1.1-3.6,0.9
		c-1.6-0.2-3.2-0.6-4.7-1.4c-1.6-0.7-2.9-1.7-4.1-2.9s-1.7-2.4-1.5-3.7c0.3-3.3,1-6.8,2.3-10.5c1.3-3.7,2.9-7.3,4.7-10.9
		c1.9-3.5,3.9-6.8,6.2-9.8c2.3-3,4.6-5.5,6.8-7.4c1.6-1.3,3.2-2,4.6-2.2c1.4-0.2,2.7,0,4,0.5c1.3,0.5,2.6,1.2,3.9,2.1
		c1.3,0.9,2.7,1.8,4.2,2.7c1-1,1.9-2.1,2.8-3.3s1.9-2.3,2.9-3.4c0.6-0.8,1.6-1.1,2.9-0.9c1.3,0.2,2.6,0.6,3.8,1.4
		c1.2,0.8,2.2,1.7,2.9,2.8c0.7,1.1,0.8,2.1,0.2,3.1c-2.9,5-5.3,9.5-7.1,13.4c-1.8,3.9-3.1,7.2-3.9,9.9c-0.8,2.7-1.2,4.7-1.2,6.1
		c0,1.4,0.4,2.1,1,2.1c1.7-0.1,4.4-2.4,7.9-7C627.4,105,631.8,98.3,637,89.4z M605.4,94.4c0.3-0.3,0.4-1,0.4-1.8
		c0-0.9-0.2-1.7-0.5-2.4c-0.3-0.7-0.8-1.2-1.4-1.4c-0.6-0.2-1.4,0.3-2.3,1.3c-2,1.9-3.8,4.2-5.5,6.8s-3.2,5.2-4.4,7.7
		c-1.3,2.5-2.3,4.8-3.1,7c-0.8,2.1-1.2,3.7-1.2,4.7c1-0.8,2.2-2.1,3.8-3.8c1.6-1.8,3.3-3.7,5-5.9c1.7-2.2,3.4-4.3,5.1-6.5
		C603,97.9,604.4,96,605.4,94.4z"/>
	<path fill="#FFFFFF" d="M685.1,93.8c0.3-0.6,0.7-0.9,1.4-0.8c0.7,0.1,1.3,0.3,2,0.6c0.7,0.3,1.2,0.8,1.6,1.2
		c0.4,0.5,0.6,0.8,0.5,1.1c-1.2,2.5-2.7,5.3-4.5,8.3c-1.8,3-3.7,6-5.7,8.8c-2,2.8-4.1,5.4-6.2,7.6c-2.1,2.3-4.1,3.9-5.9,4.8
		c-1.2,0.6-2.6,0.8-4.2,0.7c-1.6-0.1-3.1-0.5-4.5-1c-1.5-0.5-2.8-1.2-3.9-2.1c-1.1-0.9-1.8-1.7-1.9-2.6c-0.3-1.5-0.3-3.5,0-6
		c0.3-2.5,0.8-5,1.5-7.5c0.7-2.5,1.3-4.8,2-6.8c0.7-2,1.1-3.4,1.4-4c-1.7,1.5-3.7,3.6-5.8,6.4c-2.2,2.8-4.3,5.7-6.4,8.8
		c-2.1,3.1-4.1,6.2-5.8,9.2c-1.8,3-3.1,5.5-4.1,7.5c-0.4,0.8-1.3,1.2-2.6,1.2c-1.3,0-2.6-0.1-3.9-0.6c-1.3-0.4-2.4-1-3.4-1.8
		c-1-0.8-1.4-1.6-1.1-2.3c0.5-2.1,1.3-4.8,2.3-8.3c1-3.4,2.3-7.1,3.6-11.2c1.4-4,2.9-8.2,4.7-12.4c1.7-4.2,3.6-8.2,5.7-11.8
		c0.6-1.2,1.6-1.8,2.9-1.8c1.3,0,2.7,0.3,4,0.9c1.3,0.6,2.4,1.4,3.2,2.3c0.8,1,1.1,1.8,0.8,2.5c-0.9,1.8-1.8,3.7-2.8,5.5
		c-1,1.9-1.9,3.6-2.9,5.2c-0.9,1.6-1.7,3-2.3,4.2c-0.7,1.2-1,2-1.1,2.5c1.4-2,2.9-4,4.5-6c1.6-2,3.2-3.9,4.8-5.6
		c1.6-1.7,3.2-3.3,4.9-4.7c1.6-1.4,3.3-2.6,4.8-3.5c1-0.6,2.3-0.8,3.8-0.5c1.5,0.3,2.9,0.8,4.2,1.6c1.3,0.8,2.3,1.7,3.1,2.8
		c0.7,1.1,0.9,2.1,0.5,3.2c-0.7,1.7-1.6,3.9-2.7,6.4c-1.1,2.6-2.2,5.2-3.3,8.1c-1,2.8-2,5.5-2.7,8.1c-0.8,2.6-1.2,4.8-1.2,6.6
		c1.6-1,3.4-2.3,5.3-4c1.9-1.7,3.8-3.7,5.7-6c1.9-2.3,3.7-4.7,5.4-7.3C682.2,99,683.7,96.4,685.1,93.8z"/>
</g>
<g>
	<path fill="#F2F2F2" d="M355.7,204c-1.6-1.6-2.4-3.6-2.4-5.9h1.5c0,1.9,0.7,3.5,2,4.8c1.3,1.3,3,2,4.8,2c1.9,0,3.5-0.7,4.8-2
		c1.3-1.3,2-2.9,2-4.8c0-1.9-0.7-3.5-2-4.9c-1.3-1.3-3-2-4.8-2c-2.3,0-4.3-0.8-5.9-2.4c-1.6-1.6-2.4-3.6-2.4-5.9s0.8-4.3,2.4-6
		c1.6-1.6,3.6-2.4,5.9-2.4c2.3,0,4.3,0.8,6,2.4c1.6,1.6,2.4,3.6,2.4,6h-1.5c0-1.9-0.7-3.5-2-4.8c-1.3-1.3-3-2-4.8-2
		c-1.9,0-3.5,0.7-4.8,2c-1.3,1.3-2,3-2,4.8s0.7,3.5,2,4.8c1.3,1.3,3,2,4.8,2c2.3,0,4.3,0.8,6,2.4c1.6,1.6,2.4,3.6,2.4,6
		c0,2.3-0.8,4.3-2.4,5.9c-1.6,1.6-3.6,2.4-6,2.4C359.3,206.4,357.3,205.6,355.7,204z"/>
	<path fill="#F2F2F2" d="M404.8,175.9v13.7H420v1.5h-15.2v13.7H420v1.5h-16.8v-32H420v1.5H404.8z"/>
	<path fill="#F2F2F2" d="M462.7,190.4l7.5,15l-1.2,1l-7.2-14.3l-7.2,14.3l-1.2-1l7.5-15l-7.5-15.1l1.2-1l7.2,14.3l7.2-14.3l1.2,1
		L462.7,190.4z"/>
	<path fill="#F2F2F2" d="M506,204c-1.6-1.6-2.4-3.6-2.4-5.9h1.5c0,1.9,0.7,3.5,2,4.8c1.3,1.3,3,2,4.8,2c1.9,0,3.5-0.7,4.8-2
		c1.3-1.3,2-2.9,2-4.8c0-1.9-0.7-3.5-2-4.9c-1.3-1.3-3-2-4.8-2c-2.3,0-4.3-0.8-5.9-2.4c-1.6-1.6-2.4-3.6-2.4-5.9s0.8-4.3,2.4-6
		s3.6-2.4,5.9-2.4c2.3,0,4.3,0.8,6,2.4s2.4,3.6,2.4,6h-1.5c0-1.9-0.7-3.5-2-4.8c-1.3-1.3-3-2-4.8-2c-1.9,0-3.5,0.7-4.8,2
		c-1.3,1.3-2,3-2,4.8s0.7,3.5,2,4.8c1.3,1.3,3,2,4.8,2c2.3,0,4.3,0.8,6,2.4s2.4,3.6,2.4,6c0,2.3-0.8,4.3-2.4,5.9
		c-1.6,1.6-3.6,2.4-6,2.4C509.6,206.4,507.6,205.6,506,204z"/>
	<path fill="#F2F2F2" d="M570.4,174.4v32h-1.5v-15.2h-13.7v15.2h-1.5v-32h1.5v15.3h13.7v-15.3H570.4z"/>
	<path fill="#F2F2F2" d="M618,176.8c1.6,1.7,2.4,3.6,2.4,6V198c0,2.3-0.8,4.3-2.4,5.9c-1.6,1.7-3.6,2.5-5.9,2.5s-4.3-0.8-5.9-2.5
		c-1.7-1.6-2.5-3.6-2.5-5.9v-15.2c0-2.3,0.8-4.3,2.5-6c1.6-1.6,3.6-2.4,5.9-2.4S616.4,175.2,618,176.8z M619,182.8
		c0-1.9-0.7-3.5-2-4.8c-1.3-1.3-3-2-4.8-2c-1.9,0-3.5,0.7-4.8,2c-1.3,1.3-2,3-2,4.8V198c0,1.9,0.7,3.5,2,4.8c1.3,1.3,3,2,4.8,2
		c1.9,0,3.5-0.7,4.8-2c1.3-1.3,2-3,2-4.8V182.8z"/>
	<path fill="#F2F2F2" d="M662.2,174.4c2.3,0,4.3,0.8,5.9,2.4c1.6,1.7,2.4,3.6,2.4,6c0,2.3-0.8,4.3-2.4,5.9c-1.6,1.7-3.6,2.5-5.9,2.5
		h-6.9v15.2h-1.5v-32H662.2z M662.2,189.7c1.9,0,3.5-0.7,4.8-2s2-3,2-4.8s-0.7-3.5-2-4.8c-1.3-1.3-3-2-4.8-2h-6.9v13.7H662.2z"/>
</g>
<g>
	<path fill-rule="evenodd" clip-rule="evenodd" fill="#FFFFFF" d="M279.9,67.7c-4.7-16.2-9.3-31.6-13.8-47.1
		c-12.5,3.7-24.4,7.6-36.5,10.7c-37.4,9.6-75.3,11.7-113.4,5.5c-3-0.5-6.1-1.2-5.7-5.5c0.4-4.3,3.4-4.6,6.6-4
		c50,8.4,98.4,1.1,145.8-16.1c0.5-0.2,1-0.3,1.5-0.6c4.3-2,7.9-2,9.6,4.1c2.7-1,5.1-1.9,7.5-2.7c9.8-3.1,20.1,2.3,23.5,12.4
		c1.9,5.8,3.9,11.7,5.2,17.7c2,8.9-2.3,16.9-10.4,19.9c-3.4,1.3-6.9,2.5-10.7,3.9c1.9,6.7-1.4,9.2-6.9,10.8
		c-10.2,2.9-20.4,6.3-30.3,10c-20.5,7.7-33.6,23.2-41,44.3c-3.1,8.8-6.1,17.7-9.6,26.3c-0.8,1.8-3.7,2.7-5.7,4
		c-0.9-2.1-3.1-4.5-2.6-6.1c5.7-20.2,11.8-40.3,25.9-56.3c9.7-11,21.4-18.5,35-22.8C262.2,73.4,270.7,70.7,279.9,67.7z M276.4,23.9
		c3,10.4,5.7,20,8.5,29.5c0.3,1.1,1,2.6,1.9,2.9c5.9,2.2,15.1-6.7,13.5-13.2c-1.4-5.6-3.2-11.1-5.1-16.5c-1.4-3.9-4.1-6.5-8.3-5.8
		C283.4,21.3,280.2,22.7,276.4,23.9z"/>
	<path fill-rule="evenodd" clip-rule="evenodd" fill="#FFFFFF" d="M44.4,14.9c2-5.2,5.1-5.8,9.7-4.3c12.2,4.1,24.6,7.7,37,11.5
		c3.8,1.1,5.7,3.5,3.3,7.1c-0.9,1.3-4,1.9-5.7,1.5c-10.9-3-21.7-6.4-32.6-9.6c-1-0.3-2-0.5-3.5-0.8c-4.4,15.7-8.8,31.1-13.3,47.3
		c6.7,2.2,13.1,4.6,19.6,6.3c21,5.3,38,17,50.6,35c4.5,6.3,7.5,14,10.1,21.4c7.1,20,13.6,40.1,20.2,60.3c3.3,10,4.4,10.9,14.6,10.9
		c5,0,10.1-0.1,15.1,0c5.8,0.1,9.5-2.3,11-8.5c1-4.2,2.6-8.3,3.9-12.4c1-2.9,3.2-5.1,5.9-3.4c1.6,1,3,4.5,2.6,6.5
		c-0.9,4.8-2.8,9.4-4.3,14c-2.7,7.8-8.1,12.4-15.9,13c-8,0.6-16,0.6-24,0.1c-8.8-0.6-14-6.2-16.8-14.8
		c-7.1-21.7-13.8-43.6-21.9-64.9c-7.8-20.5-21.2-36.2-41.6-43.8c-10.6-4-21.5-7.1-32.3-10.7c-7-2.3-7-2.3-6.6-10.5
		c-2.7-1-5.6-2-8.5-3.1c-9.7-3.7-14-12.2-11.2-22.5c1.5-5.4,3.2-10.8,5-16.1C18.5,14,26.7,9.6,36.8,12.5
		C39.1,13.2,41.4,14,44.4,14.9z M42.2,23.7c-3.7-1-6.7-2.6-9.6-2.4c-2.8,0.2-6.8,1.6-7.8,3.7c-2.8,6.4-5,13.2-6.3,20.1
		c-1.1,5.8,8.5,13.4,13.6,11.3c0.8-0.3,1.4-1.6,1.7-2.5C36.5,44.1,39.2,34.4,42.2,23.7z"/>
	<path fill-rule="evenodd" clip-rule="evenodd" fill="#FFFFFF" d="M146.6,137.1c0-1.3-0.1-2.6,0-3.8c0.6-4.6-1-7.3-5-10
		c-10.3-6.8-15.2-17.2-15.1-29.9c0-3.3-0.9-4.9-3.5-6.3c-3.2-1.8-6.4-3.8-9.5-5.7c-7.2-4.5-8.1-8.4-4-16.2c0.3-0.6,0.7-1.3,1-1.9
		c5-9.1,8.2-10,16.7-4.8c1.1,0.6,2.2,1.2,3.1,2c5.3,4.3,10.1,5.3,16.8,1.6c9.2-5,19.3-3.7,28.4,1.9c2.6,1.6,4.6,1.7,7.1,0
		c3.6-2.5,7.4-4.7,11.2-6.9c5.3-3,10.3-1.6,13.6,3.6c0.7,1.1,1.2,2.2,1.8,3.3c5.4,9.9,4,14.4-6.1,19c-1,0.4-1.9,0.9-2.8,1.4
		c-5.2,2.5-8.4,5.5-8.4,12.8c-0.1,12.2-6.5,21.5-16.6,28c-1.5,1-2.9,3.5-3,5.4c-0.4,4.9,0,9.8-0.2,14.7c-0.2,5.9-3.1,8.9-8.7,9.4
		c-1.4,0.1-2.8,0.1-4.2,0.1c-10.3,0-12.6-2.4-12.7-13.1C146.6,140,146.6,138.6,146.6,137.1z M170.8,72c-7.8-4.4-15.3-4.3-22.7-0.2
		C148,82,144,89.3,135.8,94.3c-0.1,9.6,3.8,16.5,11.9,21.6c6.6-5,16.2-5,24,0.1c8.1-5.8,11.8-12.8,11.5-21.7
		C175.4,90.4,170.3,81.6,170.8,72z M155.8,144.5c2.6,0,4.9,0,7.1,0c0-7.7,0-14.9,0-22.1c-2.5,0-4.7,0-7.1,0
		C155.8,130,155.8,137.2,155.8,144.5z M198.5,64.9c-6.4,3.9-12.5,7.6-18.8,11.5c1.5,2.8,2.7,4.9,4,7.3c6.5-4.1,12.5-7.9,18.7-11.8
		C200.9,69.2,199.8,67.2,198.5,64.9z M120.1,65c-1.3,2.4-2.5,4.5-3.9,7.1c6.4,3.9,12.5,7.6,18.9,11.5c1.3-2.5,2.5-4.7,3.7-7.1
		C132.5,72.7,126.7,69.1,120.1,65z"/>
	<path fill-rule="evenodd" clip-rule="evenodd" fill="#FFFFFF" d="M67.2,36.1c-2.9,9.3-5.2,17.6-8.1,25.8c-0.5,1.3-3.8,2.9-4.9,2.3
		c-1.6-0.8-3.5-3.8-3.1-5.2c2.1-8.2,4.6-16.4,7.4-24.4c0.5-1.3,3.4-2.7,5-2.4C64.9,32.5,66.1,34.8,67.2,36.1z"/>
	<path fill-rule="evenodd" clip-rule="evenodd" fill="#FFFFFF" d="M268.5,60.5c-1.2,1.3-2.4,3.4-4,3.8c-1.4,0.3-4.2-0.9-4.6-2.1
		c-2.8-8.4-5.3-16.9-7.5-25.4c-0.3-1.2,1.5-4.1,2.7-4.4c1.6-0.3,4.6,0.7,5.1,2C263.2,42.7,265.6,51.2,268.5,60.5z"/>
</g>
</svg>
